<svg width="164" height="52" viewBox="0 0 164 52" fill="none" xmlns="http://www.w3.org/2000/svg">
<path d="M158.875 50.75H5.125C2.58239 50.75 0.5 48.6676 0.5 46.125V5.125C0.5 2.58239 2.58239 0.5 5.125 0.5H158.875C161.418 0.5 163.5 2.58239 163.5 5.125V46.125C163.5 48.6676 161.418 50.75 158.875 50.75Z" fill="black" stroke="#A1A6AA"/>
<path fill-rule="evenodd" clip-rule="evenodd" d="M12.5563 25.1125V11.6594C12.5563 10.8906 13.1969 10.25 13.8375 10.25C14.4781 10.25 14.7344 10.3781 15.1188 10.6344L39.8469 24.2156C40.3594 24.4719 40.6156 24.8563 40.6156 25.2406C40.6156 25.625 40.3594 26.0094 39.8469 26.2656L15.1188 39.8469C14.8625 39.975 14.4781 40.2313 13.8375 40.2313C13.1969 40.2313 12.5563 39.5906 12.5563 38.8219V25.1125Z" fill="url(#paint0_linear_3012_2263)"/>
<path fill-rule="evenodd" clip-rule="evenodd" d="M28.5719 25.2406L13.5813 10.25C13.7094 10.25 13.7094 10.25 13.8375 10.25C14.4781 10.25 14.7344 10.3781 15.1188 10.6344L33.3125 20.6281L28.5719 25.2406Z" fill="url(#paint1_linear_3012_2263)"/>
<path fill-rule="evenodd" clip-rule="evenodd" d="M33.1844 29.725L28.5719 25.1125L33.3125 20.3719L39.8469 23.9594C40.3594 24.2156 40.6156 24.6 40.6156 24.9844C40.6156 25.3687 40.3594 25.7531 39.8469 26.0094L33.1844 29.725Z" fill="url(#paint2_linear_3012_2263)"/>
<path fill-rule="evenodd" clip-rule="evenodd" d="M13.7094 39.975L28.5719 25.1125L33.1844 29.725L15.1188 39.5906C14.7344 39.8469 14.4781 39.975 13.7094 39.975C13.8375 39.975 13.8375 39.975 13.7094 39.975Z" fill="url(#paint3_linear_3012_2263)"/>
<path fill-rule="evenodd" clip-rule="evenodd" d="M91.0969 43.4344C90.4562 42.9219 89.9437 42.025 89.6875 41.5125L91.7375 40.6156C91.8656 40.8719 92.1219 41.2563 92.3781 41.6406C92.8906 42.1531 93.6594 42.6656 94.4281 42.6656C95.1969 42.6656 96.0937 42.2812 96.6062 41.6406C96.9906 41 97.2469 40.3594 97.2469 39.4625V38.6938C95.7094 40.6156 92.5062 40.3594 90.7125 38.3094C88.7906 36.2594 88.7906 32.8 90.7125 30.75C92.6343 28.8281 95.4531 28.5719 97.1187 30.3656V29.4688H99.2969V39.0781C99.2969 41.5125 98.4 42.9219 97.2469 43.8188C96.4781 44.4594 95.325 44.7156 94.3 44.7156C93.1469 44.5875 91.9937 44.2031 91.0969 43.4344ZM144.781 43.9469L146.959 38.8219L143.116 29.9813H145.294L147.984 36.2594L150.675 29.9813H152.853L146.959 43.9469H144.781ZM134.403 39.0781C133.762 38.4375 133.506 37.5406 133.506 36.6437C133.506 35.875 133.762 35.1062 134.275 34.5938C135.172 33.6969 136.453 33.3125 137.862 33.3125C138.759 33.3125 139.528 33.4406 140.169 33.825C140.169 32.2875 138.887 31.6469 137.862 31.6469C136.966 31.6469 136.069 32.1594 135.684 33.0562L133.762 32.2875C134.147 31.3906 135.172 29.725 137.734 29.725C139.016 29.725 140.297 30.1094 141.066 31.0063C141.834 31.9031 142.091 32.9281 142.091 34.3375V39.7188H139.912V38.8219C139.656 39.2062 139.144 39.4625 138.759 39.7188C138.247 39.975 137.606 40.1031 136.966 40.1031C136.197 39.975 135.044 39.7188 134.403 39.0781ZM66.1125 34.4656C66.1125 31.9031 68.0344 29.0844 71.4937 29.0844C74.825 29.0844 76.875 31.9031 76.875 34.4656C76.875 37.0281 74.9531 39.8469 71.4937 39.8469C68.0344 39.8469 66.1125 37.0281 66.1125 34.4656ZM77.6437 34.4656C77.6437 31.9031 79.5656 29.0844 83.025 29.0844C86.3562 29.0844 88.4062 31.9031 88.4062 34.4656C88.4062 37.0281 86.4844 39.8469 83.025 39.8469C79.6937 39.8469 77.6437 37.0281 77.6437 34.4656ZM51.6344 37.2844C48.4312 34.0812 48.5594 28.8281 51.7625 25.4969C53.4281 23.8313 55.4781 23.0625 57.6562 23.0625C59.7062 23.0625 61.7562 23.8312 63.2937 25.3687L61.7562 27.0344C59.45 24.7281 55.7344 24.8563 53.5562 27.1625C51.25 29.5969 51.25 33.3125 53.5562 35.7469C55.8625 38.1813 59.7062 38.3094 62.0125 35.875C62.7812 35.1062 63.0375 34.0812 63.1656 33.0562H57.7844V30.75H65.3437C65.4719 31.2625 65.4719 31.9031 65.4719 32.5438C65.4719 34.4656 64.7031 36.3875 63.4219 37.6688C62.0125 39.0781 59.9625 39.8469 57.9125 39.8469C55.6062 39.7187 53.3 38.95 51.6344 37.2844ZM105.831 38.1812C103.909 36.1312 103.909 32.6719 105.831 30.4937C107.753 28.4437 110.956 28.4437 112.75 30.4937C113.391 31.1344 113.775 32.0313 114.159 32.9281L107.112 35.875C107.497 36.7719 108.394 37.5406 109.675 37.5406C110.828 37.5406 111.597 37.1562 112.366 36.0031L114.288 37.2844C114.031 37.5406 113.775 37.7969 113.647 38.0531C111.469 40.2313 107.753 40.2312 105.831 38.1812ZM119.156 39.7188V25.4969H123.769C126.459 25.4969 128.637 27.4188 128.637 29.725C128.637 32.0313 126.716 33.9531 124.281 33.9531H121.462V39.5906H119.156V39.7188ZM129.919 39.7188V25.4969H132.097V39.7188H129.919ZM100.962 39.4625V23.575H103.269V39.4625H100.962ZM140.041 35.4906C139.528 35.1063 138.759 34.9781 137.991 34.9781C136.453 34.9781 135.556 35.7469 135.556 36.6437C135.556 37.5406 136.453 38.0531 137.35 38.0531C138.631 38.0531 140.041 37.0281 140.041 35.4906ZM74.4406 34.4656C74.4406 32.9281 73.4156 31.2625 71.4937 31.2625C69.5719 31.2625 68.5469 32.9281 68.5469 34.4656C68.5469 36.0031 69.5719 37.6688 71.4937 37.6688C73.2875 37.6688 74.4406 36.0031 74.4406 34.4656ZM85.9719 34.4656C85.9719 32.9281 84.9469 31.2625 83.025 31.2625C81.1031 31.2625 80.0781 32.9281 80.0781 34.4656C80.0781 36.0031 81.1031 37.6688 83.025 37.6688C84.9469 37.6688 85.9719 36.0031 85.9719 34.4656ZM97.375 35.3625C97.375 35.2344 97.375 35.1062 97.5031 34.9781C97.5031 34.85 97.5031 34.5938 97.5031 34.4656C97.5031 34.3375 97.5031 34.0813 97.5031 33.9531V33.825C97.5031 33.6969 97.375 33.4406 97.375 33.3125C96.9906 32.0312 95.8375 31.1344 94.6844 31.1344C93.1469 31.1344 91.8656 32.6719 91.8656 34.3375C91.8656 36.1312 93.1469 37.5406 94.8125 37.5406C95.8375 37.6687 96.8625 36.7719 97.375 35.3625ZM106.728 34.2094L111.469 32.1594C110.956 31.2625 110.187 31.0063 109.547 31.0063C107.625 31.1344 106.472 33.1844 106.728 34.2094ZM126.331 29.8531C126.331 28.5719 125.306 27.675 123.897 27.675H121.334V32.1594H124.025C125.306 32.1594 126.331 31.1344 126.331 29.8531Z" fill="white"/>
<path fill-rule="evenodd" clip-rule="evenodd" d="M146.447 41.3844H146.319V41.2562H146.447H146.319V41.3844H146.447Z" fill="white"/>
<path fill-rule="evenodd" clip-rule="evenodd" d="M146.703 41.3844C146.703 41.2562 146.703 41.2562 146.703 41.3844C146.575 41.2562 146.575 41.2562 146.703 41.3844C146.575 41.3844 146.575 41.3844 146.703 41.3844ZM146.703 41.2562C146.703 41.3844 146.703 41.3844 146.703 41.2562C146.575 41.3844 146.703 41.3844 146.703 41.2562Z" fill="white"/>
<path fill-rule="evenodd" clip-rule="evenodd" d="M146.831 41.2562H146.703H146.831V41.3844V41.2562Z" fill="white"/>
<path d="M49.8406 12.9406C49.8406 10.6344 51.5063 9.22501 53.5563 9.22501C54.9656 9.22501 55.8625 9.86563 56.5031 10.7625L55.4781 11.4031C55.0938 10.8906 54.4531 10.5063 53.5563 10.5063C52.1469 10.5063 51.1219 11.5313 51.1219 13.0688C51.1219 14.6063 52.1469 15.6313 53.5563 15.6313C54.325 15.6313 54.9656 15.2469 55.2219 14.9906V13.8375H53.1719V12.6844H56.6313V15.375C55.9906 16.1438 54.9656 16.6563 53.6844 16.6563C51.5062 16.6563 49.8406 15.1188 49.8406 12.9406Z" fill="white"/>
<path d="M58.1687 16.5281V9.35312H63.0375V10.5062H59.3219V12.3H62.9094V13.4531H59.3219V15.5031H63.0375V16.6562L58.1687 16.5281Z" fill="white"/>
<path d="M66.625 16.5281V10.5062H64.4469V9.35312H70.0844V10.5062H67.9063V16.5281H66.625Z" fill="white"/>
<path d="M74.4406 16.5281V9.35312H75.7219V16.5281H74.4406Z" fill="white"/>
<path d="M79.1813 16.5281V10.5062H77.0031V9.35312H82.6406V10.5062H80.4625V16.5281H79.1813Z" fill="white"/>
<path d="M86.7406 12.9406C86.7406 10.7625 88.2781 9.22501 90.4563 9.22501C92.6344 9.22501 94.1719 10.7625 94.1719 12.9406C94.1719 15.1188 92.6344 16.6563 90.4563 16.6563C88.2781 16.6563 86.7406 14.9906 86.7406 12.9406ZM92.7625 12.9406C92.7625 11.4031 91.8656 10.3781 90.3281 10.3781C88.9188 10.3781 87.8938 11.5313 87.8938 12.9406C87.8938 14.4781 88.7906 15.5031 90.3281 15.5031C91.8656 15.5031 92.7625 14.35 92.7625 12.9406Z" fill="white"/>
<path d="M100.578 16.5281L96.8625 11.4031V16.5281H95.5813V9.35312H96.8625L100.578 14.35V9.35312H101.859V16.5281H100.578Z" fill="white"/>
<defs>
<linearGradient id="paint0_linear_3012_2263" x1="20.8426" y1="8.42242" x2="28.0153" y2="37.8795" gradientUnits="userSpaceOnUse">
<stop stop-color="#006884"/>
<stop offset="1" stop-color="#8AD1D0"/>
</linearGradient>
<linearGradient id="paint1_linear_3012_2263" x1="12.0959" y1="12.6124" x2="31.6427" y2="23.1795" gradientUnits="userSpaceOnUse">
<stop stop-color="#24BBB6"/>
<stop offset="1" stop-color="#DBE692"/>
</linearGradient>
<linearGradient id="paint2_linear_3012_2263" x1="34.5866" y1="30.2632" x2="34.5866" y2="20.0794" gradientUnits="userSpaceOnUse">
<stop stop-color="#FCC072"/>
<stop offset="1" stop-color="#F58A5B"/>
</linearGradient>
<linearGradient id="paint3_linear_3012_2263" x1="15.8807" y1="42.626" x2="31.322" y2="26.9113" gradientUnits="userSpaceOnUse">
<stop stop-color="#712B8F"/>
<stop offset="1" stop-color="#EA1D27"/>
</linearGradient>
</defs>
</svg>
