<svg width="118" height="36" viewBox="0 0 118 36" fill="none" xmlns="http://www.w3.org/2000/svg">
<path d="M113.437 35.8837H4.5631C2.04435 35.8837 0 33.8394 0 31.3206V4.5631C0 2.04435 2.04435 0 4.5631 0H113.437C115.956 0 118 2.04435 118 4.5631V31.3255C117.995 33.8394 115.956 35.8837 113.437 35.8837Z" fill="#454545"/>
<path d="M36.6956 10.2705H33.4432L32.7291 11.8502H32.289L34.8664 6.24048H35.2772L37.8547 11.8502H37.4145L36.6956 10.2705ZM36.544 9.92813L35.0669 6.69043L33.5997 9.92813H36.544Z" fill="#F5F5F5"/>
<path d="M41.8945 7.6687L40.0017 11.8503H39.5909L37.7079 7.6687H38.1334L39.8012 11.4102L41.4836 7.6687H41.8945Z" fill="#F5F5F5"/>
<path d="M45.2447 8.03556C45.5234 8.29966 45.6604 8.68603 45.6604 9.19957V11.8504H45.274V11.107C45.142 11.3515 44.9463 11.5423 44.6871 11.6792C44.4328 11.8161 44.1247 11.8846 43.7677 11.8846C43.303 11.8846 42.9362 11.777 42.6672 11.5569C42.3982 11.3368 42.2613 11.0483 42.2613 10.6913C42.2613 10.344 42.3836 10.0603 42.633 9.84515C42.8824 9.62995 43.2786 9.52236 43.8215 9.52236H45.2545V9.18489C45.2545 8.79363 45.1469 8.50018 44.9366 8.29477C44.7262 8.09425 44.4181 7.99154 44.0122 7.99154C43.7334 7.99154 43.4693 8.04045 43.215 8.13337C42.9607 8.23119 42.7455 8.35835 42.5694 8.51975L42.3689 8.23119C42.5792 8.04534 42.8286 7.89862 43.1221 7.79591C43.4155 7.6932 43.7236 7.6394 44.0415 7.6394C44.5649 7.6394 44.9659 7.77146 45.2447 8.03556ZM44.7116 11.3124C44.9561 11.151 45.1371 10.9211 45.2593 10.613V9.83048H43.8312C43.4204 9.83048 43.1221 9.90384 42.9362 10.0555C42.7504 10.2071 42.6574 10.4125 42.6574 10.6717C42.6574 10.9456 42.7602 11.1608 42.9607 11.3173C43.1612 11.4738 43.4498 11.552 43.8166 11.552C44.1736 11.5569 44.467 11.4738 44.7116 11.3124Z" fill="#F5F5F5"/>
<path d="M47.2792 6.55853C47.2157 6.49495 47.1814 6.42159 47.1814 6.32867C47.1814 6.23574 47.2157 6.16238 47.2792 6.09391C47.3428 6.03033 47.4211 5.99609 47.514 5.99609C47.6069 5.99609 47.6803 6.02544 47.7488 6.08902C47.8123 6.1526 47.8466 6.22596 47.8466 6.31889C47.8466 6.41181 47.8123 6.48517 47.7488 6.55364C47.6852 6.61722 47.6069 6.65146 47.514 6.65146C47.4162 6.65146 47.3428 6.62211 47.2792 6.55853ZM47.3086 7.66874H47.7096V11.8504H47.3086V7.66874Z" fill="#F5F5F5"/>
<path d="M49.4018 5.90796H49.8029V11.8503H49.4018V5.90796Z" fill="#F5F5F5"/>
<path d="M54.0921 8.03556C54.3709 8.29966 54.5078 8.68603 54.5078 9.19957V11.8504H54.1214V11.107C53.9894 11.3515 53.7937 11.5423 53.5345 11.6792C53.2802 11.8161 52.9721 11.8846 52.6151 11.8846C52.1504 11.8846 51.7836 11.777 51.5146 11.5569C51.2456 11.3368 51.1087 11.0483 51.1087 10.6913C51.1087 10.344 51.231 10.0603 51.4804 9.84515C51.7298 9.62995 52.126 9.52236 52.6689 9.52236H54.1019V9.18489C54.1019 8.79363 53.9943 8.50018 53.784 8.29477C53.5737 8.09425 53.2655 7.99154 52.8596 7.99154C52.5808 7.99154 52.3167 8.04045 52.0624 8.13337C51.8081 8.23119 51.5929 8.35835 51.4168 8.51975L51.2163 8.23119C51.4266 8.04534 51.676 7.89862 51.9695 7.79591C52.2629 7.6932 52.571 7.6394 52.889 7.6394C53.4172 7.6394 53.8182 7.77146 54.0921 8.03556ZM53.559 11.3124C53.8035 11.151 53.9845 10.9211 54.1068 10.613V9.83048H52.6786C52.2678 9.83048 51.9695 9.90384 51.7836 10.0555C51.5978 10.2071 51.5049 10.4125 51.5049 10.6717C51.5049 10.9456 51.6076 11.1608 51.8081 11.3173C52.0086 11.4738 52.2972 11.552 52.664 11.552C53.021 11.5569 53.3193 11.4738 53.559 11.3124Z" fill="#F5F5F5"/>
<path d="M59.3154 7.9034C59.6285 8.08436 59.8779 8.33379 60.0588 8.65658C60.2398 8.97937 60.3278 9.34618 60.3278 9.75701C60.3278 10.1678 60.2398 10.5346 60.0588 10.8525C59.8779 11.1753 59.6333 11.4248 59.3154 11.6057C59.0024 11.7867 58.6454 11.8796 58.259 11.8796C57.8873 11.8796 57.545 11.7916 57.2466 11.6106C56.9434 11.4297 56.7135 11.1802 56.5473 10.8623V11.8454H56.1609V5.90796H56.5619V8.62235C56.7282 8.31423 56.9581 8.06969 57.2613 7.89851C57.5597 7.72733 57.8922 7.6393 58.2639 7.6393C58.6503 7.6393 59.0024 7.72733 59.3154 7.9034ZM59.1003 11.2976C59.3546 11.146 59.56 10.9406 59.7067 10.6716C59.8534 10.4026 59.9268 10.0994 59.9268 9.75701C59.9268 9.41465 59.8534 9.11142 59.7067 8.84243C59.56 8.57344 59.3595 8.36802 59.1003 8.21641C58.8459 8.0648 58.5574 7.99143 58.2346 7.99143C57.9118 7.99143 57.6281 8.0648 57.3738 8.21641C57.1195 8.36802 56.919 8.57344 56.7722 8.84243C56.6255 9.11142 56.5522 9.41465 56.5522 9.75701C56.5522 10.0994 56.6255 10.4026 56.7722 10.6716C56.919 10.9406 57.1195 11.146 57.3738 11.2976C57.6281 11.4492 57.9167 11.5226 58.2346 11.5226C58.5525 11.5226 58.8459 11.4492 59.1003 11.2976Z" fill="#F5F5F5"/>
<path d="M61.5701 5.90796H61.9711V11.8503H61.5701V5.90796Z" fill="#F5F5F5"/>
<path d="M67.1896 9.85469H63.5949C63.6047 10.1824 63.6878 10.4709 63.8443 10.7253C64.0008 10.9796 64.2111 11.1752 64.4752 11.3121C64.7393 11.4491 65.0377 11.5225 65.3703 11.5225C65.6441 11.5225 65.8936 11.4735 66.1283 11.3757C66.3631 11.2779 66.5538 11.1312 66.7103 10.9404L66.9451 11.2046C66.7641 11.4246 66.5343 11.5909 66.2604 11.7083C65.9865 11.8257 65.6882 11.8844 65.3654 11.8844C64.9496 11.8844 64.5779 11.7914 64.2503 11.6105C63.9226 11.4295 63.6683 11.1801 63.4873 10.8573C63.3014 10.5345 63.2085 10.1726 63.2085 9.76177C63.2085 9.35583 63.2966 8.99392 63.4677 8.66623C63.6389 8.34344 63.8786 8.08912 64.1867 7.90816C64.4899 7.7272 64.8323 7.63428 65.2137 7.63428C65.5952 7.63428 65.9327 7.72231 66.2359 7.90327C66.5392 8.08423 66.7739 8.33366 66.95 8.65156C67.1212 8.97435 67.2092 9.33627 67.2092 9.74221L67.1896 9.85469ZM64.4117 8.18694C64.1769 8.31899 63.9862 8.49995 63.8492 8.73959C63.7074 8.97924 63.6242 9.24335 63.6047 9.54657H66.8081C66.7935 9.24824 66.7103 8.97924 66.5685 8.74449C66.4267 8.50973 66.2359 8.32388 66.0012 8.19183C65.7664 8.05978 65.5023 7.9913 65.2089 7.9913C64.9105 7.9913 64.6464 8.05488 64.4117 8.18694Z" fill="#F5F5F5"/>
<path d="M71.0631 11.6105C70.7452 11.4295 70.4958 11.1752 70.3148 10.8524C70.1339 10.5296 70.041 10.1628 70.041 9.75689C70.041 9.35095 70.1339 8.98903 70.3148 8.66135C70.4958 8.33856 70.7452 8.08424 71.0631 7.90328C71.381 7.72232 71.7381 7.62939 72.1342 7.62939C72.5304 7.62939 72.8874 7.72232 73.2053 7.90328C73.5232 8.08424 73.7726 8.33856 73.9536 8.66135C74.1345 8.98414 74.2275 9.35095 74.2275 9.75689C74.2275 10.1628 74.1345 10.5296 73.9536 10.8524C73.7726 11.1752 73.5232 11.4295 73.2053 11.6105C72.8874 11.7915 72.5304 11.8844 72.1342 11.8844C71.7381 11.8844 71.381 11.7915 71.0631 11.6105ZM72.995 11.2975C73.2493 11.1459 73.4498 10.9405 73.5966 10.6715C73.7433 10.4025 73.8166 10.0992 73.8166 9.75689C73.8166 9.41453 73.7433 9.1113 73.5966 8.84231C73.4498 8.57332 73.2493 8.3679 72.995 8.21629C72.7407 8.06467 72.4521 7.99131 72.1342 7.99131C71.8163 7.99131 71.5278 8.06467 71.2734 8.21629C71.0191 8.3679 70.8186 8.57332 70.6719 8.84231C70.5251 9.1113 70.4518 9.41453 70.4518 9.75689C70.4518 10.0992 70.5251 10.4025 70.6719 10.6715C70.8186 10.9405 71.0191 11.1459 71.2734 11.2975C71.5278 11.4491 71.8163 11.5225 72.1342 11.5225C72.4521 11.5225 72.7407 11.4491 72.995 11.2975Z" fill="#F5F5F5"/>
<path d="M78.7514 8.09401C79.0547 8.39724 79.2063 8.83741 79.2063 9.40963V11.855H78.8052V9.43898C78.8052 8.96946 78.6878 8.61243 78.4482 8.3679C78.2086 8.12336 77.876 8.00109 77.4505 8.00109C76.9614 8.00109 76.5701 8.14781 76.2865 8.44126C76.0028 8.7347 75.861 9.13086 75.861 9.62483V11.8501H75.4599V7.66851H75.8463V8.57331C75.9881 8.27986 76.2033 8.04999 76.4919 7.88371C76.7756 7.71742 77.113 7.63428 77.5043 7.63428C78.0325 7.63917 78.4482 7.79078 78.7514 8.09401Z" fill="#F5F5F5"/>
<path d="M84.9921 11.5862C84.8893 11.6841 84.7622 11.7574 84.6106 11.8063C84.459 11.8552 84.2976 11.8846 84.1362 11.8846C83.7742 11.8846 83.4906 11.7868 83.2949 11.5862C83.0993 11.3857 82.9966 11.1069 82.9966 10.7499V8.01597H82.2288V7.67361H82.9966V6.75903H83.3977V7.67361H84.728V8.01597H83.3977V10.7059C83.3977 10.9798 83.4612 11.1852 83.5933 11.327C83.7253 11.4689 83.9161 11.5373 84.1753 11.5373C84.4345 11.5373 84.6546 11.4591 84.8258 11.3026L84.9921 11.5862Z" fill="#F5F5F5"/>
<path d="M89.3889 8.09414C89.6921 8.39737 89.8438 8.83754 89.8438 9.40976V11.8552H89.4427V9.43911C89.4427 8.96959 89.3253 8.61256 89.0857 8.36802C88.846 8.12349 88.5135 8.00122 88.088 8.00122C87.5989 8.00122 87.2076 8.14794 86.924 8.44139C86.6403 8.73483 86.4985 9.13099 86.4985 9.62496V11.8503H86.0974V5.90796H86.4985V8.54409C86.6403 8.25554 86.8555 8.03056 87.1391 7.87406C87.4228 7.71755 87.7554 7.6393 88.1418 7.6393C88.67 7.6393 89.0857 7.79091 89.3889 8.09414Z" fill="#F5F5F5"/>
<path d="M95.0377 9.85469H91.443C91.4528 10.1824 91.5359 10.4709 91.6924 10.7253C91.8489 10.9796 92.0592 11.1752 92.3233 11.3121C92.5875 11.4491 92.8858 11.5225 93.2184 11.5225C93.4922 11.5225 93.7417 11.4735 93.9764 11.3757C94.2112 11.2779 94.4019 11.1312 94.5584 10.9404L94.7932 11.2046C94.6122 11.4246 94.3824 11.5909 94.1085 11.7083C93.8346 11.8257 93.5363 11.8844 93.2135 11.8844C92.7978 11.8844 92.4261 11.7914 92.0984 11.6105C91.7707 11.4295 91.5164 11.1801 91.3354 10.8573C91.1496 10.5345 91.0566 10.1726 91.0566 9.76177C91.0566 9.35583 91.1447 8.99392 91.3158 8.66623C91.487 8.34344 91.7267 8.08912 92.0348 7.90816C92.338 7.7272 92.6804 7.63428 93.0619 7.63428C93.4433 7.63428 93.7808 7.72231 94.084 7.90327C94.3873 8.08423 94.622 8.33366 94.7981 8.65156C94.9693 8.97435 95.0573 9.33627 95.0573 9.74221L95.0377 9.85469ZM92.2549 8.18694C92.0201 8.31899 91.8294 8.49995 91.6924 8.73959C91.5506 8.97924 91.4675 9.24335 91.4479 9.54657H94.6514C94.6367 9.24824 94.5536 8.97924 94.4117 8.74449C94.2699 8.50973 94.0791 8.32388 93.8444 8.19183C93.6096 8.05978 93.3455 7.9913 93.0521 7.9913C92.7537 7.9913 92.4896 8.05488 92.2549 8.18694Z" fill="#F5F5F5"/>
<path d="M38.6715 21.6761H40.3148V25.4078C39.8355 25.7893 39.273 26.0876 38.6274 26.293C37.9868 26.4985 37.3265 26.6012 36.6467 26.6012C35.693 26.6012 34.8322 26.3957 34.0643 25.98C33.2965 25.5643 32.6949 24.9921 32.2596 24.2585C31.8244 23.5249 31.6043 22.7032 31.6043 21.7837C31.6043 20.8643 31.8244 20.0377 32.2596 19.309C32.6949 18.5754 33.3014 18.0032 34.0741 17.5874C34.8469 17.1717 35.7125 16.9663 36.676 16.9663C37.4586 16.9663 38.1726 17.0935 38.8182 17.3527C39.4589 17.6119 40.0018 17.9885 40.437 18.4922L39.3415 19.5633C38.6274 18.8493 37.7667 18.4922 36.7592 18.4922C36.0989 18.4922 35.512 18.6292 34.9985 18.908C34.485 19.1867 34.0839 19.5731 33.7954 20.072C33.5068 20.5708 33.3601 21.143 33.3601 21.7837C33.3601 22.4098 33.5068 22.9722 33.7954 23.4711C34.0839 23.9699 34.485 24.3612 34.9985 24.6497C35.512 24.9334 36.094 25.0801 36.7445 25.0801C37.4781 25.0801 38.1188 24.9187 38.6715 24.6008V21.6761Z" fill="#F5F5F5"/>
<path d="M43.6992 26.0922C43.1172 25.7792 42.6672 25.3439 42.3395 24.7864C42.0119 24.2288 41.8505 23.5979 41.8505 22.8937C41.8505 22.1894 42.0119 21.5585 42.3395 21.0058C42.6672 20.4531 43.1172 20.0228 43.6992 19.7098C44.2812 19.3967 44.9317 19.2402 45.6506 19.2402C46.3842 19.2402 47.0396 19.3967 47.6167 19.7098C48.1987 20.0228 48.6487 20.4531 48.9763 21.0058C49.304 21.5585 49.4654 22.1894 49.4654 22.8937C49.4654 23.5979 49.304 24.2288 48.9763 24.7864C48.6487 25.3439 48.1987 25.7792 47.6167 26.0922C47.0347 26.4052 46.3793 26.5617 45.6506 26.5617C44.9317 26.5568 44.2812 26.4052 43.6992 26.0922ZM47.1765 24.5125C47.5776 24.1017 47.7781 23.5637 47.7781 22.8937C47.7781 22.2236 47.5776 21.6856 47.1765 21.2748C46.7755 20.864 46.2668 20.6586 45.6506 20.6586C45.0344 20.6586 44.5306 20.864 44.1345 21.2748C43.7383 21.6856 43.5378 22.2236 43.5378 22.8937C43.5378 23.5637 43.7383 24.1017 44.1345 24.5125C44.5306 24.9233 45.0393 25.1287 45.6506 25.1287C46.2668 25.1287 46.7755 24.9233 47.1765 24.5125Z" fill="#F5F5F5"/>
<path d="M52.3314 26.0922C51.7494 25.7792 51.2995 25.3439 50.9718 24.7864C50.6441 24.2288 50.4827 23.5979 50.4827 22.8937C50.4827 22.1894 50.6441 21.5585 50.9718 21.0058C51.2995 20.4531 51.7494 20.0228 52.3314 19.7098C52.9134 19.3967 53.5639 19.2402 54.2828 19.2402C55.0165 19.2402 55.6718 19.3967 56.2489 19.7098C56.8309 20.0228 57.2809 20.4531 57.6086 21.0058C57.9363 21.5585 58.0977 22.1894 58.0977 22.8937C58.0977 23.5979 57.9363 24.2288 57.6086 24.7864C57.2809 25.3439 56.8309 25.7792 56.2489 26.0922C55.6669 26.4052 55.0116 26.5617 54.2828 26.5617C53.559 26.5568 52.9085 26.4052 52.3314 26.0922ZM55.8088 24.5125C56.2098 24.1017 56.4103 23.5637 56.4103 22.8937C56.4103 22.2236 56.2098 21.6856 55.8088 21.2748C55.4077 20.864 54.8991 20.6586 54.2828 20.6586C53.6666 20.6586 53.1629 20.864 52.7667 21.2748C52.3705 21.6856 52.17 22.2236 52.17 22.8937C52.17 23.5637 52.3705 24.1017 52.7667 24.5125C53.1629 24.9233 53.6715 25.1287 54.2828 25.1287C54.8991 25.1287 55.4077 24.9233 55.8088 24.5125Z" fill="#F5F5F5"/>
<path d="M66.7935 19.3234V25.3831C66.7935 27.8969 65.5072 29.1539 62.9395 29.1539C62.2548 29.1539 61.5995 29.0658 60.9881 28.8947C60.3719 28.7186 59.8632 28.4692 59.4622 28.1366L60.2105 26.8796C60.5235 27.1389 60.9197 27.3443 61.3941 27.5008C61.8734 27.6573 62.3526 27.7355 62.8466 27.7355C63.6291 27.7355 64.2063 27.5546 64.5731 27.2024C64.9399 26.8454 65.1208 26.3025 65.1208 25.5689V25.1923C64.8372 25.5053 64.4899 25.7401 64.0791 25.9015C63.6683 26.0629 63.2183 26.1411 62.7292 26.1411C62.0494 26.1411 61.4381 25.9944 60.8903 25.7059C60.3425 25.4173 59.9073 25.0065 59.5942 24.4832C59.2763 23.955 59.1198 23.3534 59.1198 22.6785C59.1198 21.9986 59.2763 21.402 59.5942 20.8787C59.9121 20.3553 60.3425 19.9543 60.8903 19.6657C61.4381 19.3821 62.0543 19.2354 62.7292 19.2354C63.2477 19.2354 63.7172 19.3185 64.1427 19.4897C64.5682 19.6609 64.9203 19.9201 65.204 20.2673V19.3185H66.7935V19.3234ZM64.5388 24.1555C64.9448 23.7789 65.1453 23.2849 65.1453 22.6785C65.1453 22.0818 64.9399 21.5927 64.5388 21.221C64.1329 20.8444 63.6145 20.6586 62.9787 20.6586C62.338 20.6586 61.8147 20.8444 61.4087 21.221C61.0028 21.5976 60.8023 22.0818 60.8023 22.6785C60.8023 23.2849 61.0028 23.7789 61.4087 24.1555C61.8147 24.537 62.338 24.7228 62.9787 24.7228C63.6096 24.7277 64.1329 24.537 64.5388 24.1555Z" fill="#F5F5F5"/>
<path d="M68.9845 16.5408H70.6572V26.4691H68.9845V16.5408Z" fill="#F5F5F5"/>
<path d="M79.5388 23.4268H73.934C74.0318 23.955 74.2861 24.3707 74.7019 24.6788C75.1176 24.9869 75.6311 25.1385 76.2473 25.1385C77.0299 25.1385 77.6803 24.8793 78.189 24.3609L79.084 25.3929C78.7612 25.7743 78.3553 26.0678 77.8662 26.2634C77.3771 26.459 76.8245 26.5569 76.2082 26.5569C75.4257 26.5569 74.7312 26.4004 74.1345 26.0873C73.5379 25.7743 73.0732 25.3391 72.7504 24.7815C72.4227 24.224 72.2614 23.593 72.2614 22.8888C72.2614 22.1943 72.4179 21.5683 72.7358 21.0107C73.0537 20.4532 73.4938 20.0179 74.0514 19.7049C74.6138 19.3919 75.2447 19.2354 75.949 19.2354C76.6435 19.2354 77.2646 19.387 77.8173 19.6951C78.3651 20.0032 78.7954 20.4336 79.1036 20.9911C79.4117 21.5487 79.5633 22.1943 79.5633 22.923C79.5682 23.0502 79.5584 23.2165 79.5388 23.4268ZM74.5992 21.0547C74.2275 21.3726 74.0025 21.7932 73.9242 22.3214H77.9787C77.9053 21.803 77.6901 21.3873 77.3233 21.0645C76.9565 20.7417 76.5017 20.5852 75.9588 20.5852C75.4208 20.5803 74.966 20.7368 74.5992 21.0547Z" fill="#F5F5F5"/>
<path d="M90.998 17.4992C91.5995 17.7682 92.0593 18.1497 92.3821 18.6485C92.7048 19.1474 92.8614 19.7392 92.8614 20.4288C92.8614 21.1086 92.7 21.6955 92.3821 22.1992C92.0593 22.703 91.5995 23.0894 90.998 23.3584C90.3964 23.6273 89.6872 23.7594 88.8754 23.7594H86.7625V26.464H85.0214V17.0981H88.8754C89.6921 17.0981 90.3964 17.2351 90.998 17.4992ZM90.5236 21.808C90.9148 21.4852 91.1105 21.0254 91.1105 20.4288C91.1105 19.8321 90.9148 19.3724 90.5236 19.0496C90.1323 18.7268 89.5552 18.5703 88.7971 18.5703H86.7625V22.2873H88.7971C89.5552 22.2922 90.1323 22.1308 90.5236 21.808Z" fill="#F5F5F5"/>
<path d="M94.578 16.5408H96.2507V26.4691H94.578V16.5408Z" fill="#F5F5F5"/>
<path d="M103.587 19.9983C104.144 20.5021 104.423 21.265 104.423 22.2774V26.4639H102.843V25.5934C102.638 25.9064 102.345 26.146 101.968 26.3074C101.587 26.4737 101.132 26.5569 100.599 26.5569C100.065 26.5569 99.596 26.4639 99.1949 26.283C98.7939 26.102 98.4858 25.8477 98.2657 25.52C98.0456 25.1923 97.938 24.8255 97.938 24.4147C97.938 23.774 98.1776 23.2556 98.652 22.8692C99.1313 22.4828 99.8796 22.2872 100.907 22.2872H102.755V22.1796C102.755 21.6807 102.604 21.2944 102.305 21.0303C102.007 20.7613 101.562 20.6292 100.975 20.6292C100.574 20.6292 100.178 20.6928 99.7916 20.8151C99.4052 20.9422 99.0775 21.1134 98.8086 21.3384L98.1532 20.1206C98.5298 19.8369 98.9797 19.6168 99.503 19.4652C100.031 19.3136 100.589 19.2354 101.176 19.2354C102.227 19.2402 103.029 19.4946 103.587 19.9983ZM102.066 25.0554C102.393 24.8646 102.623 24.5908 102.755 24.2337V23.4023H101.029C100.065 23.4023 99.5862 23.7202 99.5862 24.3511C99.5862 24.6543 99.7085 24.894 99.9481 25.075C100.188 25.2559 100.525 25.3439 100.951 25.3439C101.366 25.3391 101.738 25.2461 102.066 25.0554Z" fill="#F5F5F5"/>
<path d="M113.119 19.3235L109.774 27.0412C109.461 27.8188 109.084 28.3617 108.634 28.6796C108.189 28.9975 107.646 29.154 107.015 29.154C106.658 29.154 106.306 29.0953 105.959 28.9779C105.612 28.8605 105.328 28.6991 105.103 28.4986L105.773 27.2661C105.934 27.4177 106.125 27.54 106.34 27.6281C106.56 27.7161 106.781 27.7601 107.001 27.7601C107.294 27.7601 107.539 27.6818 107.729 27.5302C107.92 27.3786 108.096 27.1243 108.258 26.7673L108.38 26.4885L105.264 19.3186H107.005L109.255 24.6055L111.515 19.3186H113.119V19.3235Z" fill="#F5F5F5"/>
<path d="M28.391 17.4845L23.8964 14.8923L20.1989 18.4626L23.5785 21.7297L28.391 18.9517C28.6551 18.8001 28.8165 18.5262 28.8165 18.2181C28.8165 17.9099 28.6551 17.6361 28.391 17.4845Z" fill="#F5F5F5"/>
<path d="M23.1334 14.4473L18.1839 11.5911L7.34595 6.03516L19.5925 17.8758L23.1334 14.4473Z" fill="#F5F5F5"/>
<path d="M7.52203 30.7141L18.2035 24.8305L22.8155 22.1699L19.5925 19.0544L7.52203 30.7141Z" fill="#F5F5F5"/>
<path d="M6.62212 6.5144L6.60745 30.4206L18.9811 18.4626L6.62212 6.5144Z" fill="#F5F5F5"/>
</svg>
