<svg width="358" height="52" viewBox="0 0 358 52" fill="none" xmlns="http://www.w3.org/2000/svg">
<path d="M158.875 50.75H5.125C2.58239 50.75 0.5 48.6676 0.5 46.125V5.125C0.5 2.58239 2.58239 0.5 5.125 0.5H158.875C161.418 0.5 163.5 2.58239 163.5 5.125V46.125C163.5 48.6676 161.418 50.75 158.875 50.75Z" fill="black" stroke="#A1A6AA"/>
<path d="M34.5938 25.3687C34.5938 21.3969 37.925 19.475 38.0531 19.3469C36.1313 16.6562 33.3125 16.2719 32.2875 16.1437C29.8531 15.8875 27.4188 17.5531 26.2656 17.5531C24.9844 17.5531 23.0625 16.1437 21.0125 16.1437C18.3219 16.1437 15.8875 17.6812 14.4781 20.1156C11.6594 24.9844 13.7094 32.1594 16.4 36.1312C17.8094 38.0531 19.3469 40.2312 21.3969 40.1031C23.4469 39.975 24.2156 38.8219 26.65 38.8219C29.0844 38.8219 29.725 40.1031 31.9031 40.1031C34.0813 40.1031 35.4906 38.1812 36.7719 36.2594C38.3094 34.0812 38.95 31.9031 38.95 31.775C38.8219 31.6469 34.5938 30.1094 34.5938 25.3687Z" fill="white"/>
<path d="M30.6219 13.5813C31.6469 12.1719 32.4156 10.3782 32.2875 8.4563C30.75 8.58442 28.7 9.4813 27.675 10.8907C26.65 12.0438 25.7531 13.9657 26.0094 15.7594C27.675 15.8875 29.4688 14.8625 30.6219 13.5813Z" fill="white"/>
<path d="M63.8063 39.847H60.9875L59.45 34.9782H54.0688L52.6594 39.847H49.9688L55.35 23.3188H58.6813L63.8063 39.847ZM58.9375 32.9282L57.5281 28.572C57.4 28.1876 57.1438 27.0345 56.6313 25.497C56.5031 26.1376 56.2469 27.2907 55.8625 28.572L54.4531 32.9282H58.9375Z" fill="white"/>
<path d="M77.5156 33.8251C77.5156 35.8751 77.0031 37.4126 75.85 38.6938C74.825 39.7188 73.6719 40.2313 72.1344 40.2313C70.5969 40.2313 69.4438 39.7188 68.8031 38.5657V44.8438H66.1125V32.0313C66.1125 30.7501 66.1125 29.4688 65.9844 28.0595H68.2906L68.4188 29.9813C69.3156 28.572 70.5969 27.8032 72.3906 27.8032C73.8 27.8032 74.9531 28.3157 75.85 29.4688C77.0031 30.4938 77.5156 31.9032 77.5156 33.8251ZM74.825 33.8251C74.825 32.672 74.5688 31.647 74.0563 31.0063C73.5438 30.2376 72.775 29.8532 71.75 29.8532C71.1094 29.8532 70.4688 30.1095 69.9563 30.4938C69.4438 30.8782 69.0594 31.5188 68.9313 32.1595C68.8031 32.5438 68.8031 32.8001 68.8031 32.9282V34.9782C68.8031 35.8751 69.0594 36.5157 69.5719 37.1563C70.0844 37.797 70.8531 38.0532 71.6219 38.0532C72.6469 38.0532 73.4156 37.6688 73.9281 36.9001C74.5688 36.1313 74.825 35.1063 74.825 33.8251Z" fill="white"/>
<path d="M91.225 33.8251C91.225 35.8751 90.7125 37.4126 89.5593 38.6938C88.5343 39.7188 87.3812 40.2313 85.8437 40.2313C84.3062 40.2313 83.1531 39.7188 82.5125 38.5657V44.8438H79.8218V32.0313C79.8218 30.7501 79.8219 29.4688 79.6937 28.0595H82L82.1281 29.9813C83.025 28.572 84.3062 27.8032 86.1 27.8032C87.5094 27.8032 88.6625 28.3157 89.5593 29.4688C90.7125 30.4938 91.225 31.9032 91.225 33.8251ZM88.5344 33.8251C88.5344 32.672 88.2781 31.647 87.7656 31.0063C87.2531 30.2376 86.4844 29.8532 85.4594 29.8532C84.8187 29.8532 84.1781 30.1095 83.6656 30.4938C83.1531 30.8782 82.7687 31.5188 82.6406 32.1595C82.5125 32.5438 82.5125 32.8001 82.5125 32.9282V34.9782C82.5125 35.8751 82.7687 36.5157 83.2812 37.1563C83.7937 37.797 84.5625 38.0532 85.3312 38.0532C86.3562 38.0532 87.125 37.6688 87.6375 36.9001C88.2781 36.1313 88.5344 35.1063 88.5344 33.8251Z" fill="white"/>
<path d="M106.6 35.2344C106.6 36.6438 106.088 37.7969 105.191 38.6938C104.166 39.7188 102.628 40.1032 100.706 40.1032C98.9125 40.1032 97.5031 39.7188 96.4781 39.0782L97.1188 36.9001C98.2719 37.5407 99.5531 37.925 100.963 37.925C101.988 37.925 102.756 37.6688 103.269 37.2844C103.781 36.7719 104.038 36.2594 104.038 35.4907C104.038 34.8501 103.781 34.2094 103.397 33.8251C102.884 33.3126 102.116 32.9282 101.091 32.5438C98.1438 31.5188 96.7344 29.8532 96.7344 27.8032C96.7344 26.3938 97.2469 25.3688 98.2719 24.4719C99.2969 23.575 100.578 23.1907 102.372 23.1907C103.909 23.1907 105.063 23.4469 106.088 23.9594L105.447 26.1376C104.55 25.6251 103.525 25.3688 102.244 25.3688C101.347 25.3688 100.578 25.6251 100.066 26.0094C99.6813 26.3938 99.425 26.9063 99.425 27.5469C99.425 28.1876 99.6813 28.7001 100.194 29.2126C100.578 29.5969 101.475 29.9813 102.628 30.4938C104.038 31.0063 105.063 31.7751 105.831 32.5438C106.216 33.1844 106.6 34.0813 106.6 35.2344Z" fill="white"/>
<path d="M115.313 29.9813H112.366V35.7469C112.366 37.1563 112.878 37.925 113.903 37.925C114.416 37.925 114.8 37.925 115.056 37.7969L115.184 39.8469C114.672 40.1031 114.031 40.1031 113.134 40.1031C112.109 40.1031 111.213 39.8469 110.7 39.2062C110.059 38.5656 109.803 37.5406 109.803 36.0031V29.9813H108.009V27.9312H109.803V25.7531L112.366 24.9844V27.9312H115.313V29.9813Z" fill="white"/>
<path d="M128.509 33.8251C128.509 35.6188 127.997 37.1563 126.972 38.3094C125.819 39.4626 124.409 40.1032 122.616 40.1032C120.822 40.1032 119.412 39.4626 118.387 38.3094C117.362 37.1563 116.85 35.7469 116.85 33.9532C116.85 32.1594 117.362 30.6219 118.516 29.4688C119.541 28.3157 121.078 27.675 122.872 27.675C124.666 27.675 126.075 28.3157 127.1 29.4688C127.997 30.6219 128.509 32.0313 128.509 33.8251ZM125.691 33.9532C125.691 32.8001 125.434 31.9032 124.922 31.1344C124.409 30.2375 123.512 29.7251 122.487 29.7251C121.462 29.7251 120.566 30.2375 120.053 31.1344C119.541 31.9032 119.284 32.9282 119.284 33.9532C119.284 35.1063 119.541 36.0032 120.053 36.7719C120.566 37.6688 121.462 38.1813 122.487 38.1813C123.512 38.1813 124.281 37.6688 124.922 36.7719C125.434 36.0032 125.691 34.9782 125.691 33.9532Z" fill="white"/>
<path d="M137.094 30.2375C136.838 30.2375 136.581 30.1094 136.197 30.1094C135.3 30.1094 134.531 30.4937 134.019 31.1344C133.634 31.775 133.378 32.5437 133.378 33.4406V39.7188H130.688V31.5187C130.688 30.1094 130.688 28.9563 130.559 27.8031H132.866L132.994 30.1094H133.122C133.378 29.3406 133.891 28.7 134.403 28.1875C135.044 27.8031 135.684 27.5469 136.325 27.5469C136.581 27.5469 136.838 27.5469 136.966 27.5469V30.2375H137.094Z" fill="white"/>
<path d="M148.881 33.3126C148.881 33.8251 148.881 34.2094 148.753 34.4657H140.809C140.809 35.6188 141.194 36.5157 141.963 37.1563C142.603 37.6688 143.5 38.0532 144.525 38.0532C145.678 38.0532 146.831 37.925 147.728 37.5407L148.113 39.3344C146.959 39.8469 145.678 40.1032 144.141 40.1032C142.347 40.1032 140.809 39.5907 139.784 38.4376C138.759 37.4126 138.247 35.875 138.247 34.0813C138.247 32.2875 138.759 30.75 139.656 29.5969C140.681 28.3157 142.091 27.675 143.884 27.675C145.55 27.675 146.959 28.3157 147.728 29.5969C148.625 30.6219 148.881 31.9032 148.881 33.3126ZM146.447 32.6719C146.447 31.9032 146.319 31.2626 145.934 30.6219C145.422 29.8532 144.781 29.4688 143.884 29.4688C142.988 29.4688 142.347 29.8532 141.834 30.4938C141.45 31.0063 141.194 31.7751 141.066 32.5438H146.447V32.6719Z" fill="white"/>
<path d="M58.1687 13.1968C58.1687 14.6062 57.7843 15.7593 56.8875 16.528C56.1187 17.1687 54.9656 17.553 53.4281 17.553C52.6594 17.553 52.0187 17.553 51.5062 17.4249V9.48115C52.1469 9.35303 52.9156 9.35303 53.8125 9.35303C55.2218 9.35303 56.2468 9.60928 57.0156 10.2499C57.6562 10.8905 58.1687 11.9155 58.1687 13.1968ZM56.7593 13.1968C56.7593 12.2999 56.5031 11.5312 55.9906 11.0187C55.4781 10.5062 54.7093 10.2499 53.8125 10.2499C53.4281 10.2499 53.0437 10.2499 52.7875 10.378V16.3999C52.9156 16.3999 53.3 16.3999 53.6843 16.3999C54.7093 16.3999 55.4781 16.1437 55.9906 15.6312C56.5031 15.1187 56.7593 14.2218 56.7593 13.1968Z" fill="white"/>
<path d="M65.3438 14.4781C65.3438 15.375 65.0875 16.1437 64.575 16.6562C64.0625 17.2968 63.2938 17.5531 62.3969 17.5531C61.5 17.5531 60.8594 17.2968 60.3469 16.6562C59.8344 16.1437 59.5781 15.375 59.5781 14.4781C59.5781 13.5812 59.8344 12.8125 60.3469 12.3C60.8594 11.6593 61.6281 11.4031 62.525 11.4031C63.4219 11.4031 64.0625 11.6593 64.575 12.3C65.0875 12.8125 65.3438 13.5812 65.3438 14.4781ZM64.0625 14.4781C64.0625 13.9656 63.9344 13.4531 63.6781 13.0687C63.4219 12.5562 63.0375 12.4281 62.525 12.4281C62.0125 12.4281 61.6281 12.6843 61.3719 13.0687C61.1156 13.4531 60.9875 13.9656 60.9875 14.4781C60.9875 14.9906 61.1156 15.5031 61.3719 15.8875C61.6281 16.4 62.0125 16.5281 62.525 16.5281C63.0375 16.5281 63.4219 16.2718 63.6781 15.7593C63.9344 15.5031 64.0625 14.9906 64.0625 14.4781Z" fill="white"/>
<path d="M75.2094 11.5312L73.4156 17.425H72.2625L71.4938 14.8625C71.2375 14.2219 71.1094 13.5813 70.9813 12.9406C70.8531 13.5813 70.725 14.2219 70.4688 14.8625L69.7 17.425H68.5469L66.625 11.5312H67.9062L68.5469 14.35C68.675 14.9906 68.8031 15.6313 68.9313 16.2719C69.0594 15.7594 69.1875 15.1188 69.4438 14.35L70.2125 11.5312H71.2375L72.0063 14.2219C72.2625 14.8625 72.3906 15.5031 72.5188 16.1438C72.6469 15.5031 72.775 14.8625 72.9031 14.2219L73.6719 11.5312H75.2094Z" fill="white"/>
<path d="M81.8719 17.4249H80.5906V14.0937C80.5906 13.0687 80.2062 12.5562 79.4375 12.5562C79.0531 12.5562 78.7969 12.6843 78.5406 12.9405C78.2844 13.1968 78.1562 13.5812 78.1562 13.9655V17.4249H76.875V13.1968C76.875 12.6843 76.875 12.1718 76.875 11.5312H78.0281V12.428C78.1563 12.1718 78.4125 11.9155 78.6688 11.6593C79.0531 11.403 79.4375 11.2749 79.8219 11.2749C80.3344 11.2749 80.8469 11.403 81.2313 11.7874C81.7438 12.1718 81.8719 12.8124 81.8719 13.7093V17.4249Z" fill="white"/>
<path d="M85.4594 17.4249H84.1781V8.84058H85.4594V17.4249Z" fill="white"/>
<path d="M93.1469 14.4781C93.1469 15.375 92.8906 16.1437 92.3781 16.6562C91.8656 17.2968 91.0968 17.5531 90.2 17.5531C89.3031 17.5531 88.6625 17.2968 88.15 16.6562C87.6375 16.1437 87.3812 15.375 87.3812 14.4781C87.3812 13.5812 87.6375 12.8125 88.15 12.3C88.6625 11.7875 89.4312 11.4031 90.3281 11.4031C91.225 11.4031 91.8656 11.6593 92.3781 12.3C92.8906 12.8125 93.1469 13.5812 93.1469 14.4781ZM91.8656 14.4781C91.8656 13.9656 91.7375 13.4531 91.4812 13.0687C91.225 12.5562 90.8406 12.4281 90.3281 12.4281C89.8156 12.4281 89.4312 12.6843 89.175 13.0687C88.9187 13.4531 88.7906 13.9656 88.7906 14.4781C88.7906 14.9906 88.9187 15.5031 89.175 15.8875C89.4312 16.4 89.8156 16.5281 90.3281 16.5281C90.8406 16.5281 91.225 16.2718 91.4812 15.7593C91.7375 15.5031 91.8656 14.9906 91.8656 14.4781Z" fill="white"/>
<path d="M99.425 17.4249H98.2719L98.1438 16.7843C97.7594 17.2968 97.1188 17.5531 96.4781 17.5531C95.9656 17.5531 95.4531 17.425 95.1969 17.0406C94.9406 16.6562 94.6844 16.2718 94.6844 15.8875C94.6844 15.1187 94.9406 14.6062 95.5813 14.2218C96.2219 13.8375 96.9906 13.7093 98.1438 13.7093V13.5812C98.1438 12.8125 97.7594 12.4281 96.9906 12.4281C96.35 12.4281 95.9656 12.5562 95.4531 12.8125L95.1969 11.9156C95.7094 11.5312 96.35 11.4031 97.2469 11.4031C98.7844 11.4031 99.5531 12.1718 99.5531 13.8375V16.0156C99.425 16.6562 99.425 17.0406 99.425 17.4249ZM98.1438 15.375V14.4781C96.7344 14.4781 95.9656 14.8625 95.9656 15.6312C95.9656 15.8875 96.0938 16.1437 96.2219 16.2718C96.35 16.4 96.6063 16.5281 96.8625 16.5281C97.1188 16.5281 97.375 16.4 97.6313 16.2718C97.8875 16.1437 98.0156 15.8875 98.1438 15.6312C98.1438 15.6312 98.1438 15.5031 98.1438 15.375Z" fill="white"/>
<path d="M106.856 17.425H105.703V16.5281C105.319 17.2969 104.678 17.5531 103.781 17.5531C103.012 17.5531 102.5 17.2969 101.987 16.7844C101.475 16.2719 101.347 15.5031 101.347 14.6062C101.347 13.7094 101.603 12.9406 102.116 12.3C102.628 11.7875 103.269 11.5312 103.909 11.5312C104.678 11.5312 105.191 11.7875 105.575 12.3V8.96875H106.856V15.8875C106.856 16.4 106.856 16.9125 106.856 17.425ZM105.575 14.9906V13.9656C105.575 13.8375 105.575 13.7094 105.575 13.5813C105.447 13.325 105.319 13.0687 105.062 12.8125C104.806 12.5563 104.55 12.5562 104.166 12.5562C103.653 12.5562 103.269 12.8125 103.012 13.1969C102.756 13.5812 102.628 14.0938 102.628 14.7344C102.628 15.375 102.756 15.7594 103.012 16.1438C103.269 16.5281 103.653 16.7844 104.166 16.7844C104.55 16.7844 104.934 16.6563 105.191 16.2719C105.447 15.7594 105.575 15.375 105.575 14.9906Z" fill="white"/>
<path d="M118.003 14.4781C118.003 15.375 117.747 16.1437 117.234 16.6562C116.722 17.2968 115.953 17.5531 115.056 17.5531C114.159 17.5531 113.519 17.2968 113.006 16.6562C112.494 16.1437 112.237 15.375 112.237 14.4781C112.237 13.5812 112.494 12.8125 113.006 12.3C113.519 11.6593 114.287 11.4031 115.184 11.4031C116.081 11.4031 116.722 11.6593 117.234 12.3C117.747 12.8125 118.003 13.5812 118.003 14.4781ZM116.594 14.4781C116.594 13.9656 116.466 13.4531 116.209 13.0687C115.953 12.5562 115.569 12.4281 115.056 12.4281C114.544 12.4281 114.159 12.6843 113.903 13.0687C113.647 13.4531 113.519 13.9656 113.519 14.4781C113.519 14.9906 113.647 15.5031 113.903 15.8875C114.159 16.4 114.544 16.5281 115.056 16.5281C115.569 16.5281 115.953 16.2718 116.209 15.7593C116.466 15.5031 116.594 14.9906 116.594 14.4781Z" fill="white"/>
<path d="M125.05 17.4249H123.769V14.0937C123.769 13.0687 123.384 12.5562 122.616 12.5562C122.231 12.5562 121.975 12.6843 121.719 12.9405C121.462 13.1968 121.334 13.5812 121.334 13.9655V17.4249H120.053V13.1968C120.053 12.6843 120.053 12.1718 120.053 11.5312H121.206V12.428C121.334 12.1718 121.591 11.9155 121.847 11.6593C122.231 11.403 122.616 11.2749 123 11.2749C123.512 11.2749 124.025 11.403 124.409 11.7874C124.922 12.1718 125.05 12.8124 125.05 13.7093V17.4249Z" fill="white"/>
<path d="M133.762 12.5562H132.353V15.375C132.353 16.1437 132.609 16.4 133.122 16.4C133.378 16.4 133.506 16.4 133.762 16.4V17.425C133.506 17.5531 133.122 17.5531 132.737 17.5531C132.225 17.5531 131.841 17.425 131.584 17.0406C131.328 16.7843 131.2 16.1437 131.2 15.5031V12.5562H130.303V11.5312H131.2V10.5062L132.481 10.1218V11.5312H133.891V12.5562H133.762Z" fill="white"/>
<path d="M140.681 17.4249H139.4V14.0937C139.4 13.0687 139.016 12.5562 138.247 12.5562C137.606 12.5562 137.222 12.8125 136.966 13.4531C136.966 13.5812 136.966 13.7093 136.966 13.9656V17.4249H135.684V8.84058H136.966V12.4281C137.35 11.7875 137.991 11.4031 138.759 11.4031C139.272 11.4031 139.784 11.5312 140.041 11.9156C140.425 12.3 140.681 13.0687 140.681 13.8375V17.4249Z" fill="white"/>
<path d="M147.728 14.2219C147.728 14.4781 147.728 14.6063 147.728 14.8625H143.884C143.884 15.5031 144.141 15.8875 144.397 16.1438C144.781 16.4 145.166 16.5281 145.678 16.5281C146.319 16.5281 146.831 16.4 147.216 16.2719L147.472 17.1688C146.959 17.425 146.319 17.5531 145.55 17.5531C144.653 17.5531 143.884 17.2969 143.372 16.7844C142.859 16.2719 142.603 15.5031 142.603 14.6062C142.603 13.7094 142.859 12.9406 143.372 12.4281C143.884 11.7875 144.525 11.5312 145.422 11.5312C146.319 11.5312 146.959 11.7875 147.344 12.4281C147.6 12.8125 147.728 13.4531 147.728 14.2219ZM146.575 13.8375C146.575 13.4531 146.447 13.0688 146.319 12.8125C146.063 12.4281 145.806 12.3 145.294 12.3C144.909 12.3 144.525 12.4281 144.269 12.8125C144.013 13.0688 143.884 13.4531 143.884 13.8375H146.575Z" fill="white"/>
<path d="M352.875 50.75H199.125C196.582 50.75 194.5 48.6676 194.5 46.125V5.125C194.5 2.58239 196.582 0.5 199.125 0.5H352.875C355.418 0.5 357.5 2.58239 357.5 5.125V46.125C357.5 48.6676 355.418 50.75 352.875 50.75Z" fill="black" stroke="#A1A6AA"/>
<path fill-rule="evenodd" clip-rule="evenodd" d="M206.556 25.1125V11.6594C206.556 10.8906 207.197 10.25 207.838 10.25C208.478 10.25 208.734 10.3781 209.119 10.6344L233.847 24.2156C234.359 24.4719 234.616 24.8563 234.616 25.2406C234.616 25.625 234.359 26.0094 233.847 26.2656L209.119 39.8469C208.863 39.975 208.478 40.2313 207.838 40.2313C207.197 40.2313 206.556 39.5906 206.556 38.8219V25.1125Z" fill="url(#paint0_linear_3012_2455)"/>
<path fill-rule="evenodd" clip-rule="evenodd" d="M222.572 25.2406L207.581 10.25C207.709 10.25 207.709 10.25 207.837 10.25C208.478 10.25 208.734 10.3781 209.119 10.6344L227.312 20.6281L222.572 25.2406Z" fill="url(#paint1_linear_3012_2455)"/>
<path fill-rule="evenodd" clip-rule="evenodd" d="M227.184 29.725L222.572 25.1124L227.313 20.3718L233.847 23.9593C234.359 24.2156 234.616 24.5999 234.616 24.9843C234.616 25.3687 234.359 25.7531 233.847 26.0093L227.184 29.725Z" fill="url(#paint2_linear_3012_2455)"/>
<path fill-rule="evenodd" clip-rule="evenodd" d="M207.709 39.9751L222.572 25.1125L227.184 29.7251L209.119 39.5907C208.734 39.8469 208.478 39.9751 207.709 39.9751C207.837 39.9751 207.837 39.9751 207.709 39.9751Z" fill="url(#paint3_linear_3012_2455)"/>
<path fill-rule="evenodd" clip-rule="evenodd" d="M285.097 43.4344C284.456 42.9219 283.944 42.025 283.687 41.5125L285.737 40.6156C285.866 40.8719 286.122 41.2563 286.378 41.6406C286.891 42.1531 287.659 42.6656 288.428 42.6656C289.197 42.6656 290.094 42.2812 290.606 41.6406C290.991 41 291.247 40.3594 291.247 39.4625V38.6938C289.709 40.6156 286.506 40.3594 284.712 38.3094C282.791 36.2594 282.791 32.8 284.712 30.75C286.634 28.8281 289.453 28.5719 291.119 30.3656V29.4688H293.297V39.0781C293.297 41.5125 292.4 42.9219 291.247 43.8188C290.478 44.4594 289.325 44.7156 288.3 44.7156C287.147 44.5875 285.994 44.2031 285.097 43.4344ZM338.781 43.9469L340.959 38.8219L337.116 29.9813H339.294L341.984 36.2594L344.675 29.9813H346.853L340.959 43.9469H338.781ZM328.403 39.0781C327.762 38.4375 327.506 37.5406 327.506 36.6437C327.506 35.875 327.762 35.1062 328.275 34.5938C329.172 33.6969 330.453 33.3125 331.862 33.3125C332.759 33.3125 333.528 33.4406 334.169 33.825C334.169 32.2875 332.887 31.6469 331.862 31.6469C330.966 31.6469 330.069 32.1594 329.684 33.0562L327.762 32.2875C328.147 31.3906 329.172 29.725 331.734 29.725C333.016 29.725 334.297 30.1094 335.066 31.0063C335.834 31.9031 336.091 32.9281 336.091 34.3375V39.7188H333.912V38.8219C333.656 39.2062 333.144 39.4625 332.759 39.7188C332.247 39.975 331.606 40.1031 330.966 40.1031C330.197 39.975 329.044 39.7188 328.403 39.0781ZM260.112 34.4656C260.112 31.9031 262.034 29.0844 265.494 29.0844C268.825 29.0844 270.875 31.9031 270.875 34.4656C270.875 37.0281 268.953 39.8469 265.494 39.8469C262.034 39.8469 260.112 37.0281 260.112 34.4656ZM271.644 34.4656C271.644 31.9031 273.566 29.0844 277.025 29.0844C280.356 29.0844 282.406 31.9031 282.406 34.4656C282.406 37.0281 280.484 39.8469 277.025 39.8469C273.694 39.8469 271.644 37.0281 271.644 34.4656ZM245.634 37.2844C242.431 34.0812 242.559 28.8281 245.762 25.4969C247.428 23.8313 249.478 23.0625 251.656 23.0625C253.706 23.0625 255.756 23.8312 257.294 25.3687L255.756 27.0344C253.45 24.7281 249.734 24.8563 247.556 27.1625C245.25 29.5969 245.25 33.3125 247.556 35.7469C249.862 38.1813 253.706 38.3094 256.012 35.875C256.781 35.1062 257.037 34.0812 257.166 33.0562H251.784V30.75H259.344C259.472 31.2625 259.472 31.9031 259.472 32.5438C259.472 34.4656 258.703 36.3875 257.422 37.6688C256.012 39.0781 253.962 39.8469 251.912 39.8469C249.606 39.7187 247.3 38.95 245.634 37.2844ZM299.831 38.1812C297.909 36.1312 297.909 32.6719 299.831 30.4937C301.753 28.4437 304.956 28.4437 306.75 30.4937C307.391 31.1344 307.775 32.0313 308.159 32.9281L301.112 35.875C301.497 36.7719 302.394 37.5406 303.675 37.5406C304.828 37.5406 305.597 37.1562 306.366 36.0031L308.287 37.2844C308.031 37.5406 307.775 37.7969 307.647 38.0531C305.469 40.2313 301.753 40.2312 299.831 38.1812ZM313.156 39.7188V25.4969H317.769C320.459 25.4969 322.637 27.4188 322.637 29.725C322.637 32.0313 320.716 33.9531 318.281 33.9531H315.462V39.5906H313.156V39.7188ZM323.919 39.7188V25.4969H326.097V39.7188H323.919ZM294.962 39.4625V23.575H297.269V39.4625H294.962ZM334.041 35.4906C333.528 35.1063 332.759 34.9781 331.991 34.9781C330.453 34.9781 329.556 35.7469 329.556 36.6437C329.556 37.5406 330.453 38.0531 331.35 38.0531C332.631 38.0531 334.041 37.0281 334.041 35.4906ZM268.441 34.4656C268.441 32.9281 267.416 31.2625 265.494 31.2625C263.572 31.2625 262.547 32.9281 262.547 34.4656C262.547 36.0031 263.572 37.6688 265.494 37.6688C267.287 37.6688 268.441 36.0031 268.441 34.4656ZM279.972 34.4656C279.972 32.9281 278.947 31.2625 277.025 31.2625C275.103 31.2625 274.078 32.9281 274.078 34.4656C274.078 36.0031 275.103 37.6688 277.025 37.6688C278.947 37.6688 279.972 36.0031 279.972 34.4656ZM291.375 35.3625C291.375 35.2344 291.375 35.1062 291.503 34.9781C291.503 34.85 291.503 34.5938 291.503 34.4656C291.503 34.3375 291.503 34.0813 291.503 33.9531V33.825C291.503 33.6969 291.375 33.4406 291.375 33.3125C290.991 32.0312 289.837 31.1344 288.684 31.1344C287.147 31.1344 285.866 32.6719 285.866 34.3375C285.866 36.1312 287.147 37.5406 288.812 37.5406C289.837 37.6687 290.862 36.7719 291.375 35.3625ZM300.728 34.2094L305.469 32.1594C304.956 31.2625 304.187 31.0063 303.547 31.0063C301.625 31.1344 300.472 33.1844 300.728 34.2094ZM320.331 29.8531C320.331 28.5719 319.306 27.675 317.897 27.675H315.334V32.1594H318.025C319.306 32.1594 320.331 31.1344 320.331 29.8531Z" fill="white"/>
<path fill-rule="evenodd" clip-rule="evenodd" d="M340.447 41.3845H340.319V41.2563H340.447H340.319V41.3845H340.447Z" fill="white"/>
<path fill-rule="evenodd" clip-rule="evenodd" d="M340.703 41.3845C340.703 41.2563 340.703 41.2563 340.703 41.3845C340.575 41.2563 340.575 41.2563 340.703 41.3845C340.575 41.3845 340.575 41.3845 340.703 41.3845ZM340.703 41.2563C340.703 41.3845 340.703 41.3845 340.703 41.2563C340.575 41.3845 340.703 41.3845 340.703 41.2563Z" fill="white"/>
<path fill-rule="evenodd" clip-rule="evenodd" d="M340.831 41.2563H340.703H340.831V41.3845V41.2563Z" fill="white"/>
<path d="M243.841 12.9407C243.841 10.6345 245.506 9.2251 247.556 9.2251C248.966 9.2251 249.863 9.86572 250.503 10.7626L249.478 11.4032C249.094 10.8907 248.453 10.5063 247.556 10.5063C246.147 10.5063 245.122 11.5313 245.122 13.0688C245.122 14.6063 246.147 15.6313 247.556 15.6313C248.325 15.6313 248.966 15.247 249.222 14.9907V13.8376H247.172V12.6845H250.631V15.3751C249.991 16.1438 248.966 16.6563 247.684 16.6563C245.506 16.6563 243.841 15.1188 243.841 12.9407Z" fill="white"/>
<path d="M252.169 16.528V9.35303H257.038V10.5062H253.322V12.2999H256.909V13.453H253.322V15.503H257.038V16.6562L252.169 16.528Z" fill="white"/>
<path d="M260.625 16.528V10.5062H258.447V9.35303H264.084V10.5062H261.906V16.528H260.625Z" fill="white"/>
<path d="M268.441 16.528V9.35303H269.722V16.528H268.441Z" fill="white"/>
<path d="M273.181 16.528V10.5062H271.003V9.35303H276.641V10.5062H274.463V16.528H273.181Z" fill="white"/>
<path d="M280.741 12.9407C280.741 10.7626 282.278 9.2251 284.456 9.2251C286.634 9.2251 288.172 10.7626 288.172 12.9407C288.172 15.1188 286.634 16.6563 284.456 16.6563C282.278 16.6563 280.741 14.9907 280.741 12.9407ZM286.762 12.9407C286.762 11.4032 285.866 10.3782 284.328 10.3782C282.919 10.3782 281.894 11.5313 281.894 12.9407C281.894 14.4782 282.791 15.5032 284.328 15.5032C285.866 15.5032 286.762 14.3501 286.762 12.9407Z" fill="white"/>
<path d="M294.578 16.528L290.862 11.403V16.528H289.581V9.35303H290.862L294.578 14.3499V9.35303H295.859V16.528H294.578Z" fill="white"/>
<defs>
<linearGradient id="paint0_linear_3012_2455" x1="214.843" y1="8.42242" x2="222.015" y2="37.8795" gradientUnits="userSpaceOnUse">
<stop stop-color="#006884"/>
<stop offset="1" stop-color="#8AD1D0"/>
</linearGradient>
<linearGradient id="paint1_linear_3012_2455" x1="206.096" y1="12.6124" x2="225.643" y2="23.1795" gradientUnits="userSpaceOnUse">
<stop stop-color="#24BBB6"/>
<stop offset="1" stop-color="#DBE692"/>
</linearGradient>
<linearGradient id="paint2_linear_3012_2455" x1="228.587" y1="30.2632" x2="228.587" y2="20.0793" gradientUnits="userSpaceOnUse">
<stop stop-color="#FCC072"/>
<stop offset="1" stop-color="#F58A5B"/>
</linearGradient>
<linearGradient id="paint3_linear_3012_2455" x1="209.881" y1="42.6261" x2="225.322" y2="26.9113" gradientUnits="userSpaceOnUse">
<stop stop-color="#712B8F"/>
<stop offset="1" stop-color="#EA1D27"/>
</linearGradient>
</defs>
</svg>
