<svg width="118" height="36" viewBox="0 0 118 36" fill="none" xmlns="http://www.w3.org/2000/svg">
<path d="M113.437 35.8886H4.5631C2.04435 35.8886 0 33.8442 0 31.3255V4.5631C0 2.04435 2.04435 0 4.5631 0H113.437C115.956 0 118 2.04435 118 4.5631V31.3255C117.995 33.8442 115.956 35.8886 113.437 35.8886Z" fill="#454545"/>
<path d="M7.3264 14.6674C5.4141 17.9883 6.62701 23.0307 8.74472 26.0874C9.80113 27.6133 10.8722 28.9876 12.3346 28.9876C12.3639 28.9876 12.3884 28.9876 12.4177 28.9876C13.1073 28.9583 13.6013 28.748 14.0855 28.5426C14.6234 28.3127 15.1859 28.0731 16.0613 28.0731C16.8928 28.0731 17.4259 28.3029 17.9394 28.5279C18.448 28.748 18.9665 28.973 19.7392 28.9583C21.3874 28.929 22.4047 27.447 23.2948 26.1412C24.229 24.7767 24.6936 23.4562 24.855 22.9475L24.8599 22.928C24.8892 22.8399 24.8452 22.7421 24.762 22.6981C24.762 22.6981 24.7523 22.6932 24.7474 22.6932C24.4588 22.5758 21.9058 21.4412 21.8814 18.36C21.8569 15.8559 23.7937 14.5305 24.18 14.2908L24.1996 14.281C24.2436 14.2517 24.273 14.2126 24.2828 14.1637C24.2925 14.1148 24.2828 14.061 24.2534 14.0218C22.9182 12.0655 20.869 11.7721 20.0424 11.7329C19.9251 11.7232 19.7979 11.7134 19.6756 11.7134C18.7073 11.7134 17.778 12.0802 17.0297 12.3736C16.5162 12.579 16.0711 12.7502 15.763 12.7502C15.4158 12.7502 14.9707 12.5742 14.4523 12.3687C13.7578 12.0949 12.9753 11.7819 12.1438 11.7819C12.1243 11.7819 12.1047 11.7819 12.0851 11.7819C10.1582 11.8112 8.3339 12.9165 7.3264 14.6674Z" fill="#F5F5F5"/>
<path d="M20.0473 6.34325C18.8784 6.39216 17.4748 7.1111 16.6336 8.09415C15.9195 8.92069 15.225 10.295 15.406 11.684C15.4158 11.772 15.4891 11.8356 15.5771 11.8454C15.6554 11.8503 15.7385 11.8552 15.8168 11.8552C16.9612 11.8552 18.1937 11.2243 19.0398 10.2021C19.9251 9.12611 20.375 7.74691 20.2381 6.50954C20.2283 6.41172 20.1403 6.33836 20.0473 6.34325Z" fill="#F5F5F5"/>
<path d="M33.5117 6.25049H35.7321C36.3141 6.25049 36.8325 6.37276 37.2825 6.61241C37.7324 6.85206 38.0846 7.18463 38.334 7.61013C38.5834 8.03563 38.7106 8.51492 38.7106 9.0578C38.7106 9.59579 38.5834 10.08 38.334 10.5055C38.0846 10.931 37.7324 11.2635 37.2825 11.5032C36.8325 11.7428 36.3141 11.8651 35.7321 11.8651H33.5117V6.25049ZM35.6979 11.4885C36.2163 11.4885 36.6711 11.3858 37.0673 11.1804C37.4634 10.975 37.7667 10.6864 37.9819 10.3196C38.1971 9.95281 38.3047 9.52732 38.3047 9.05291C38.3047 8.5785 38.1971 8.1579 37.9819 7.7862C37.7667 7.41939 37.4634 7.13083 37.0673 6.92542C36.6711 6.72001 36.2163 6.6173 35.6979 6.6173H33.9176V11.4885H35.6979Z" fill="#F5F5F5"/>
<path d="M40.5642 11.6156C40.2463 11.4347 39.9968 11.1803 39.8159 10.8575C39.6349 10.5348 39.542 10.1679 39.542 9.76201C39.542 9.35608 39.6349 8.98927 39.8159 8.66648C39.9968 8.34368 40.2463 8.08936 40.5642 7.9084C40.8821 7.72745 41.2391 7.63452 41.6352 7.63452C42.0314 7.63452 42.3884 7.72745 42.7063 7.9084C43.0242 8.08936 43.2737 8.34368 43.4546 8.66648C43.6356 8.98927 43.7285 9.35608 43.7285 9.76201C43.7285 10.1679 43.6356 10.5348 43.4546 10.8575C43.2737 11.1803 43.0242 11.4347 42.7063 11.6156C42.3884 11.7966 42.0314 11.8895 41.6352 11.8895C41.2391 11.8895 40.8821 11.7966 40.5642 11.6156ZM42.496 11.3026C42.7503 11.151 42.9509 10.9456 43.0976 10.6766C43.2443 10.4076 43.3177 10.1044 43.3177 9.76201C43.3177 9.41966 43.2443 9.11643 43.0976 8.84743C42.9509 8.57844 42.7503 8.37303 42.496 8.22142C42.2417 8.0698 41.9531 7.99643 41.6352 7.99643C41.3125 7.99643 41.0288 8.0698 40.7745 8.22142C40.5202 8.37303 40.3196 8.57844 40.1729 8.84743C40.0262 9.11643 39.9528 9.41966 39.9528 9.76201C39.9528 10.1044 40.0262 10.4076 40.1729 10.6766C40.3196 10.9456 40.5202 11.151 40.7745 11.3026C41.0288 11.4542 41.3173 11.5276 41.6352 11.5276C41.9531 11.5276 42.2417 11.4542 42.496 11.3026Z" fill="#F5F5F5"/>
<path d="M50.8202 7.67358L49.2355 11.8552H48.859L47.4504 8.22625L46.0321 11.8552H45.6653L44.0807 7.67358H44.467L45.8609 11.4053L47.289 7.67358H47.6314L49.0497 11.4004L50.4582 7.67358H50.8202Z" fill="#F5F5F5"/>
<path d="M55.036 8.09913C55.3392 8.40236 55.4908 8.84253 55.4908 9.41475V11.8601H55.0898V9.44899C55.0898 8.97947 54.9724 8.62244 54.7328 8.37791C54.4931 8.13337 54.1606 8.0111 53.7351 8.0111C53.246 8.0111 52.8547 8.15782 52.5711 8.45127C52.2874 8.74471 52.1455 9.14087 52.1455 9.63483V11.8601H51.7445V7.67852H52.1309V8.58332C52.2727 8.28987 52.4879 8.06 52.7765 7.89372C53.0601 7.72743 53.3976 7.64429 53.7889 7.64429C54.3171 7.64429 54.7328 7.7959 55.036 8.09913Z" fill="#F5F5F5"/>
<path d="M57.144 5.91309H57.545V11.8554H57.144V5.91309Z" fill="#F5F5F5"/>
<path d="M59.7997 11.6156C59.4818 11.4347 59.2323 11.1803 59.0514 10.8575C58.8704 10.5348 58.7775 10.1679 58.7775 9.76201C58.7775 9.35608 58.8704 8.98927 59.0514 8.66648C59.2323 8.34368 59.4818 8.08936 59.7997 7.9084C60.1176 7.72745 60.4746 7.63452 60.8707 7.63452C61.2669 7.63452 61.6239 7.72745 61.9418 7.9084C62.2597 8.08936 62.5092 8.34368 62.6901 8.66648C62.8711 8.98927 62.964 9.35608 62.964 9.76201C62.964 10.1679 62.8711 10.5348 62.6901 10.8575C62.5092 11.1803 62.2597 11.4347 61.9418 11.6156C61.6239 11.7966 61.2669 11.8895 60.8707 11.8895C60.4697 11.8895 60.1127 11.7966 59.7997 11.6156ZM61.7266 11.3026C61.981 11.151 62.1815 10.9456 62.3282 10.6766C62.4749 10.4076 62.5483 10.1044 62.5483 9.76201C62.5483 9.41966 62.4749 9.11643 62.3282 8.84743C62.1815 8.57844 61.981 8.37303 61.7266 8.22142C61.4723 8.0698 61.1838 7.99643 60.8659 7.99643C60.5431 7.99643 60.2594 8.0698 60.0051 8.22142C59.7508 8.37303 59.5502 8.57844 59.4035 8.84743C59.2568 9.11643 59.1834 9.41966 59.1834 9.76201C59.1834 10.1044 59.2568 10.4076 59.4035 10.6766C59.5502 10.9456 59.7508 11.151 60.0051 11.3026C60.2594 11.4542 60.548 11.5276 60.8659 11.5276C61.1887 11.5276 61.4723 11.4542 61.7266 11.3026Z" fill="#F5F5F5"/>
<path d="M66.7886 8.04044C67.0674 8.30454 67.2043 8.69092 67.2043 9.20445V11.8553H66.8179V11.1119C66.6859 11.3564 66.4902 11.5471 66.231 11.6841C65.9767 11.821 65.6686 11.8895 65.3116 11.8895C64.8469 11.8895 64.4801 11.7819 64.2111 11.5618C63.9422 11.3417 63.8052 11.0532 63.8052 10.6961C63.8052 10.3489 63.9275 10.0652 64.1769 9.85003C64.4263 9.63484 64.8225 9.52724 65.3654 9.52724H66.7984V9.18977C66.7984 8.79851 66.6908 8.50507 66.4805 8.29965C66.2702 8.09913 65.962 7.99642 65.5561 7.99642C65.2773 7.99642 65.0132 8.04533 64.7589 8.13826C64.5046 8.23607 64.2894 8.36323 64.1133 8.52463L63.9128 8.23607C64.1231 8.05022 64.3725 7.9035 64.666 7.80079C64.9594 7.69808 65.2676 7.64429 65.5855 7.64429C66.1088 7.64429 66.5098 7.77634 66.7886 8.04044ZM66.2555 11.3173C66.5 11.1559 66.681 10.926 66.8033 10.6179V9.83047H65.3751C64.9643 9.83047 64.666 9.90383 64.4801 10.0554C64.2943 10.2071 64.2014 10.4125 64.2014 10.6717C64.2014 10.9456 64.3041 11.1608 64.5046 11.3173C64.7051 11.4738 64.9937 11.552 65.3605 11.552C65.7175 11.5618 66.0109 11.4787 66.2555 11.3173Z" fill="#F5F5F5"/>
<path d="M72.5793 5.91309V11.8554H72.188V10.8723C72.0217 11.2 71.7919 11.4495 71.4886 11.6255C71.1903 11.8016 70.8528 11.8896 70.4714 11.8896C70.0801 11.8896 69.728 11.7967 69.415 11.6157C69.1019 11.4348 68.8525 11.1854 68.6716 10.8626C68.4906 10.5398 68.4026 10.1779 68.4026 9.76703C68.4026 9.3562 68.4906 8.98939 68.6716 8.6666C68.8525 8.34381 69.0971 8.09438 69.415 7.91342C69.728 7.73246 70.0801 7.64443 70.4714 7.64443C70.8431 7.64443 71.1805 7.73246 71.4789 7.90853C71.7772 8.0846 72.0071 8.32914 72.1782 8.64704V5.91309H72.5793ZM71.3566 11.3027C71.6109 11.1511 71.8114 10.9457 71.9582 10.6767C72.1049 10.4077 72.1782 10.1045 72.1782 9.76214C72.1782 9.41978 72.1049 9.11655 71.9582 8.84756C71.8114 8.57856 71.6109 8.37315 71.3566 8.22154C71.1023 8.06993 70.8137 7.99656 70.4958 7.99656C70.173 7.99656 69.8894 8.06993 69.635 8.22154C69.3807 8.37315 69.1802 8.57856 69.0335 8.84756C68.8867 9.11655 68.8134 9.41978 68.8134 9.76214C68.8134 10.1045 68.8867 10.4077 69.0335 10.6767C69.1802 10.9457 69.3807 11.1511 69.635 11.3027C69.8894 11.4543 70.1779 11.5277 70.4958 11.5277C70.8137 11.5277 71.1023 11.4543 71.3566 11.3027Z" fill="#F5F5F5"/>
<path d="M76.8929 11.6156C76.575 11.4347 76.3256 11.1803 76.1446 10.8575C75.9637 10.5348 75.8708 10.1679 75.8708 9.76201C75.8708 9.35608 75.9637 8.98927 76.1446 8.66648C76.3256 8.34368 76.575 8.08936 76.8929 7.9084C77.2108 7.72745 77.5679 7.63452 77.964 7.63452C78.3602 7.63452 78.7172 7.72745 79.0351 7.9084C79.353 8.08936 79.6024 8.34368 79.7834 8.66648C79.9643 8.98927 80.0573 9.35608 80.0573 9.76201C80.0573 10.1679 79.9643 10.5348 79.7834 10.8575C79.6024 11.1803 79.353 11.4347 79.0351 11.6156C78.7172 11.7966 78.3602 11.8895 77.964 11.8895C77.5679 11.8895 77.2108 11.7966 76.8929 11.6156ZM78.8248 11.3026C79.0791 11.151 79.2796 10.9456 79.4264 10.6766C79.5731 10.4076 79.6464 10.1044 79.6464 9.76201C79.6464 9.41966 79.5731 9.11643 79.4264 8.84743C79.2796 8.57844 79.0791 8.37303 78.8248 8.22142C78.5705 8.0698 78.2819 7.99643 77.964 7.99643C77.6461 7.99643 77.3576 8.0698 77.1032 8.22142C76.8489 8.37303 76.6484 8.57844 76.5017 8.84743C76.3549 9.11643 76.2816 9.41966 76.2816 9.76201C76.2816 10.1044 76.3549 10.4076 76.5017 10.6766C76.6484 10.9456 76.8489 11.151 77.1032 11.3026C77.3576 11.4542 77.6461 11.5276 77.964 11.5276C78.2819 11.5276 78.5705 11.4542 78.8248 11.3026Z" fill="#F5F5F5"/>
<path d="M84.5764 8.09913C84.8796 8.40236 85.0312 8.84253 85.0312 9.41475V11.8601H84.6302V9.44899C84.6302 8.97947 84.5128 8.62244 84.2732 8.37791C84.0335 8.13337 83.7009 8.0111 83.2754 8.0111C82.7864 8.0111 82.3951 8.15782 82.1114 8.45127C81.8278 8.74471 81.6859 9.14087 81.6859 9.63483V11.8601H81.2849V7.67852H81.6713V8.58332C81.8131 8.28987 82.0283 8.06 82.3168 7.89372C82.6005 7.72743 82.938 7.64429 83.3292 7.64429C83.8574 7.64429 84.2732 7.7959 84.5764 8.09913Z" fill="#F5F5F5"/>
<path d="M90.817 11.5911C90.7143 11.6889 90.5871 11.7623 90.4355 11.8112C90.2839 11.8601 90.1225 11.8895 89.9611 11.8895C89.5992 11.8895 89.3155 11.7916 89.1199 11.5911C88.9243 11.3906 88.8216 11.1118 88.8216 10.7548V8.02085H88.0537V7.67849H88.8216V6.76392H89.2226V7.67849H90.5529V8.02085H89.2226V10.7108C89.2226 10.9847 89.2862 11.1901 89.4182 11.3319C89.5503 11.4737 89.741 11.5422 90.0002 11.5422C90.2595 11.5422 90.4795 11.464 90.6507 11.3075L90.817 11.5911Z" fill="#F5F5F5"/>
<path d="M95.2138 8.09926C95.5171 8.40249 95.6687 8.84266 95.6687 9.41488V11.8603H95.2676V9.44912C95.2676 8.9796 95.1503 8.62258 94.9106 8.37804C94.671 8.1335 94.3384 8.01123 93.9129 8.01123C93.4238 8.01123 93.0325 8.15795 92.7489 8.4514C92.4652 8.74485 92.3234 9.141 92.3234 9.63497V11.8603H91.9223V5.91797H92.3234V8.5541C92.4652 8.26555 92.6804 8.04057 92.9641 7.88407C93.2477 7.72756 93.5803 7.64931 93.9667 7.64931C94.4998 7.64442 94.9106 7.79604 95.2138 8.09926Z" fill="#F5F5F5"/>
<path d="M100.863 9.85982H97.268C97.2777 10.1875 97.3609 10.4761 97.5174 10.7304C97.6739 10.9847 97.8842 11.1803 98.1483 11.3173C98.4124 11.4542 98.7107 11.5276 99.0433 11.5276C99.3172 11.5276 99.5666 11.4787 99.8014 11.3809C100.036 11.283 100.227 11.1363 100.383 10.9456L100.618 11.2097C100.437 11.4298 100.207 11.596 99.9334 11.7134C99.6596 11.8308 99.3612 11.8895 99.0384 11.8895C98.6227 11.8895 98.251 11.7966 97.9233 11.6156C97.5956 11.4347 97.3413 11.1852 97.1604 10.8624C96.9745 10.5396 96.8816 10.1777 96.8816 9.7669C96.8816 9.36096 96.9696 8.99415 97.1408 8.67136C97.312 8.34857 97.5516 8.09425 97.8597 7.91329C98.163 7.73233 98.5053 7.6394 98.8868 7.6394C99.2683 7.6394 99.6058 7.72744 99.909 7.9084C100.212 8.08936 100.447 8.33878 100.623 8.65668C100.794 8.97948 100.882 9.3414 100.882 9.74733L100.863 9.85982ZM98.0847 8.19206C97.85 8.32411 97.6592 8.50507 97.5223 8.74472C97.3805 8.98437 97.2973 9.24847 97.2777 9.5517H100.481C100.467 9.25336 100.383 8.98437 100.242 8.74961C100.1 8.51485 99.909 8.32901 99.6742 8.19696C99.4395 8.0649 99.1754 7.99643 98.8819 7.99643C98.5836 7.99643 98.3195 8.06001 98.0847 8.19206Z" fill="#F5F5F5"/>
<path d="M39.4393 24.2532H34.6463L33.7024 26.4687H31.8683L36.182 16.8877H37.9329L42.2612 26.4687H40.3978L39.4393 24.2532ZM38.8524 22.8545L37.0477 18.6631L35.2527 22.8545H38.8524Z" fill="#F5F5F5"/>
<path d="M49.2746 19.5435C49.8371 19.8516 50.2772 20.2918 50.5951 20.8591C50.913 21.4264 51.0744 22.0769 51.0744 22.8154C51.0744 23.5539 50.913 24.2093 50.5951 24.7815C50.2772 25.3537 49.8371 25.7939 49.2746 26.102C48.7122 26.4101 48.0764 26.5667 47.3672 26.5667C46.3793 26.5667 45.6016 26.239 45.0245 25.5787V29.1245H43.3127V19.162H44.9463V20.1206C45.2299 19.7733 45.5772 19.5141 45.9929 19.3381C46.4086 19.1669 46.8683 19.0789 47.3672 19.0789C48.0813 19.0789 48.7171 19.2354 49.2746 19.5435ZM48.7268 24.4734C49.1328 24.0528 49.3382 23.5001 49.3382 22.8154C49.3382 22.1307 49.1328 21.578 48.7268 21.1574C48.3209 20.7368 47.8025 20.5265 47.1716 20.5265C46.7608 20.5265 46.389 20.6195 46.0614 20.8053C45.7337 20.9912 45.4745 21.2601 45.2788 21.6074C45.0881 21.9546 44.9903 22.3557 44.9903 22.8105C44.9903 23.2654 45.0881 23.6664 45.2788 24.0137C45.4696 24.3609 45.7288 24.6299 46.0614 24.8157C46.389 25.0016 46.7608 25.0945 47.1716 25.0945C47.8074 25.0994 48.3209 24.8891 48.7268 24.4734Z" fill="#F5F5F5"/>
<path d="M58.6698 19.5435C59.2323 19.8516 59.6724 20.2918 59.9903 20.8591C60.3082 21.4264 60.4696 22.0769 60.4696 22.8154C60.4696 23.5539 60.3082 24.2093 59.9903 24.7815C59.6724 25.3537 59.2323 25.7939 58.6698 26.102C58.1074 26.4101 57.4716 26.5667 56.7624 26.5667C55.7745 26.5667 54.9968 26.239 54.4197 25.5787V29.1245H52.7079V19.162H54.3366V20.1206C54.6202 19.7733 54.9675 19.5141 55.3832 19.3381C55.7989 19.1669 56.2587 19.0789 56.7575 19.0789C57.4716 19.0789 58.1074 19.2354 58.6698 19.5435ZM58.1221 24.4734C58.528 24.0528 58.7334 23.5001 58.7334 22.8154C58.7334 22.1307 58.528 21.578 58.1221 21.1574C57.7161 20.7368 57.1977 20.5265 56.5668 20.5265C56.156 20.5265 55.7843 20.6195 55.4566 20.8053C55.1289 20.9912 54.8697 21.2601 54.674 21.6074C54.4833 21.9546 54.3855 22.3557 54.3855 22.8105C54.3855 23.2654 54.4833 23.6664 54.674 24.0137C54.8648 24.3609 55.124 24.6299 55.4566 24.8157C55.7843 25.0016 56.156 25.0945 56.5668 25.0945C57.1977 25.0994 57.7161 24.8891 58.1221 24.4734Z" fill="#F5F5F5"/>
<path d="M66.8668 26.2929C66.1772 26.0826 65.6343 25.8038 65.2333 25.4566L65.8495 24.0725C66.2408 24.3806 66.725 24.6349 67.2923 24.8306C67.8645 25.0262 68.4367 25.124 69.009 25.124C69.723 25.124 70.2512 25.0115 70.6034 24.7817C70.9555 24.5518 71.1316 24.2534 71.1316 23.8769C71.1316 23.603 71.0337 23.378 70.8381 23.197C70.6425 23.021 70.3931 22.8791 70.0898 22.7813C69.7866 22.6786 69.3758 22.5661 68.8573 22.439C68.1286 22.2678 67.5368 22.0917 67.0869 21.9205C66.6369 21.7494 66.2457 21.4755 65.9229 21.1038C65.6001 20.7321 65.4387 20.2332 65.4387 19.6072C65.4387 19.079 65.5805 18.5948 65.8691 18.1644C66.1576 17.7291 66.588 17.3868 67.17 17.1325C67.7471 16.8781 68.4612 16.751 69.2975 16.751C69.8795 16.751 70.4566 16.8243 71.024 16.9711C71.5913 17.1178 72.0804 17.3281 72.4863 17.602L71.9239 18.9861C71.5033 18.7415 71.068 18.5508 70.6082 18.4236C70.1534 18.2965 69.7083 18.2329 69.278 18.2329C68.5737 18.2329 68.0504 18.3503 67.7129 18.5899C67.3705 18.8296 67.1994 19.1426 67.1994 19.5338C67.1994 19.8077 67.2972 20.0327 67.4928 20.2039C67.6884 20.3751 67.9379 20.512 68.2411 20.6147C68.5443 20.7174 68.9552 20.8299 69.4736 20.9571C70.1876 21.1233 70.7696 21.2945 71.2245 21.4706C71.6793 21.6467 72.0706 21.9205 72.3934 22.2874C72.7162 22.6542 72.8776 23.1432 72.8776 23.7644C72.8776 24.2926 72.7357 24.7719 72.4472 25.2023C72.1586 25.6326 71.7233 25.975 71.1413 26.2293C70.5593 26.4836 69.8453 26.6108 69.0041 26.6108C68.2705 26.6059 67.5564 26.5032 66.8668 26.2929Z" fill="#F5F5F5"/>
<path d="M78.8786 26.0727C78.678 26.239 78.4335 26.3613 78.1449 26.4444C77.8564 26.5276 77.5532 26.5667 77.2353 26.5667C76.4332 26.5667 75.812 26.3564 75.3719 25.9358C74.9317 25.5152 74.7165 24.9038 74.7165 24.1017V20.5853H73.5134V19.2159H74.7165V17.5481H76.4283V19.2159H78.3846V20.5853H76.4283V24.0626C76.4283 24.4196 76.5163 24.6886 76.6875 24.8794C76.8587 25.0652 77.113 25.1582 77.4407 25.1582C77.8222 25.1582 78.1449 25.0555 78.3993 24.8549L78.8786 26.0727Z" fill="#F5F5F5"/>
<path d="M81.3289 26.0874C80.7371 25.7695 80.2724 25.3244 79.9399 24.7522C79.6073 24.18 79.441 23.5344 79.441 22.8154C79.441 22.0965 79.6073 21.4509 79.9399 20.8836C80.2724 20.3162 80.7371 19.8761 81.3289 19.5533C81.9206 19.2354 82.5907 19.074 83.3292 19.074C84.0775 19.074 84.7475 19.2354 85.3393 19.5533C85.9311 19.8712 86.3957 20.3162 86.7283 20.8836C87.0609 21.4509 87.2271 22.0916 87.2271 22.8154C87.2271 23.5344 87.0609 24.18 86.7283 24.7522C86.3957 25.3244 85.9311 25.7695 85.3393 26.0874C84.7475 26.4053 84.0775 26.5667 83.3292 26.5667C82.5907 26.5667 81.9255 26.4053 81.3289 26.0874ZM84.8893 24.4734C85.3002 24.0528 85.5056 23.5001 85.5056 22.8154C85.5056 22.1307 85.3002 21.5781 84.8893 21.1575C84.4785 20.7368 83.9601 20.5265 83.3292 20.5265C82.6983 20.5265 82.1798 20.7368 81.7739 21.1575C81.368 21.5781 81.1626 22.1307 81.1626 22.8154C81.1626 23.5001 81.368 24.0528 81.7739 24.4734C82.1798 24.894 82.6983 25.1043 83.3292 25.1043C83.9601 25.0994 84.4785 24.8891 84.8893 24.4734Z" fill="#F5F5F5"/>
<path d="M93.1059 19.0789V20.7075C92.9591 20.6781 92.8271 20.6684 92.7097 20.6684C92.0446 20.6684 91.5213 20.864 91.1496 21.2504C90.773 21.6367 90.5871 22.1992 90.5871 22.9279V26.4737H88.8753V19.162H90.504V20.2282C90.993 19.4603 91.8636 19.0789 93.1059 19.0789Z" fill="#F5F5F5"/>
<path d="M101.332 23.3634H95.5953C95.698 23.9014 95.9572 24.3269 96.3827 24.6448C96.8082 24.9578 97.3364 25.1192 97.9624 25.1192C98.7645 25.1192 99.4247 24.8551 99.9481 24.3269L100.868 25.3833C100.54 25.7746 100.124 26.0729 99.6204 26.2734C99.1166 26.474 98.5542 26.5767 97.9233 26.5767C97.1212 26.5767 96.412 26.4153 95.8007 26.0974C95.1893 25.7795 94.7149 25.3344 94.3823 24.7622C94.0498 24.19 93.8835 23.5444 93.8835 22.8254C93.8835 22.1114 94.0449 21.4707 94.3677 20.9033C94.6905 20.3311 95.1404 19.8861 95.7175 19.5682C96.2946 19.2503 96.9402 19.0889 97.6592 19.0889C98.3732 19.0889 99.009 19.2454 99.5666 19.5633C100.129 19.8763 100.564 20.3213 100.882 20.8936C101.195 21.4658 101.357 22.1212 101.357 22.8694C101.357 22.977 101.347 23.1433 101.332 23.3634ZM96.2751 20.9327C95.8985 21.2555 95.6637 21.6859 95.5855 22.2287H99.7329C99.6595 21.7005 99.4345 21.2702 99.0628 20.9425C98.6862 20.6148 98.2216 20.4485 97.669 20.4485C97.1163 20.4485 96.6517 20.6099 96.2751 20.9327Z" fill="#F5F5F5"/>
</svg>
