<svg width="164" height="52" viewBox="0 0 164 52" fill="none" xmlns="http://www.w3.org/2000/svg">
<path d="M158.875 50.75H5.125C2.58239 50.75 0.5 48.6676 0.5 46.125V5.125C0.5 2.58239 2.58239 0.5 5.125 0.5H158.875C161.418 0.5 163.5 2.58239 163.5 5.125V46.125C163.5 48.6676 161.418 50.75 158.875 50.75Z" fill="black" stroke="#A1A6AA"/>
<path d="M34.5937 25.3687C34.5937 21.3969 37.925 19.475 38.0531 19.3469C36.1313 16.6562 33.3125 16.2719 32.2875 16.1437C29.8531 15.8875 27.4187 17.5531 26.2656 17.5531C24.9844 17.5531 23.0625 16.1437 21.0125 16.1437C18.3219 16.1437 15.8875 17.6812 14.4781 20.1156C11.6594 24.9844 13.7094 32.1594 16.4 36.1312C17.8094 38.0531 19.3469 40.2312 21.3969 40.1031C23.4469 39.975 24.2156 38.8219 26.65 38.8219C29.0844 38.8219 29.725 40.1031 31.9031 40.1031C34.0812 40.1031 35.4906 38.1812 36.7719 36.2594C38.3094 34.0812 38.95 31.9031 38.95 31.775C38.8219 31.6469 34.5937 30.1094 34.5937 25.3687Z" fill="white"/>
<path d="M30.6219 13.5813C31.6469 12.1719 32.4156 10.3781 32.2875 8.45625C30.75 8.58438 28.7 9.48125 27.675 10.8906C26.65 12.0438 25.7531 13.9656 26.0094 15.7594C27.675 15.8875 29.4687 14.8625 30.6219 13.5813Z" fill="white"/>
<path d="M63.8062 39.8469H60.9875L59.45 34.9781H54.0688L52.6594 39.8469H49.9687L55.35 23.3187H58.6812L63.8062 39.8469ZM58.9375 32.9281L57.5281 28.5719C57.4 28.1875 57.1438 27.0344 56.6313 25.4969C56.5031 26.1375 56.2469 27.2906 55.8625 28.5719L54.4531 32.9281H58.9375Z" fill="white"/>
<path d="M77.5156 33.825C77.5156 35.875 77.0031 37.4125 75.85 38.6937C74.825 39.7187 73.6719 40.2312 72.1344 40.2312C70.5969 40.2312 69.4437 39.7187 68.8031 38.5656V44.8437H66.1125V32.0312C66.1125 30.75 66.1125 29.4687 65.9844 28.0594H68.2906L68.4187 29.9812C69.3156 28.5719 70.5969 27.8031 72.3906 27.8031C73.8 27.8031 74.9531 28.3156 75.85 29.4687C77.0031 30.4937 77.5156 31.9031 77.5156 33.825ZM74.825 33.825C74.825 32.6719 74.5687 31.6469 74.0562 31.0062C73.5437 30.2375 72.775 29.8531 71.75 29.8531C71.1094 29.8531 70.4688 30.1094 69.9563 30.4937C69.4438 30.8781 69.0594 31.5187 68.9312 32.1594C68.8031 32.5437 68.8031 32.8 68.8031 32.9281V34.9781C68.8031 35.875 69.0594 36.5156 69.5719 37.1562C70.0844 37.7969 70.8531 38.0531 71.6219 38.0531C72.6469 38.0531 73.4156 37.6687 73.9281 36.9C74.5687 36.1312 74.825 35.1062 74.825 33.825Z" fill="white"/>
<path d="M91.225 33.825C91.225 35.875 90.7125 37.4125 89.5594 38.6937C88.5344 39.7187 87.3813 40.2312 85.8438 40.2312C84.3063 40.2312 83.1531 39.7187 82.5125 38.5656V44.8437H79.8219V32.0312C79.8219 30.75 79.8219 29.4687 79.6938 28.0594H82L82.1281 29.9812C83.025 28.5719 84.3063 27.8031 86.1 27.8031C87.5094 27.8031 88.6625 28.3156 89.5594 29.4687C90.7125 30.4937 91.225 31.9031 91.225 33.825ZM88.5344 33.825C88.5344 32.6719 88.2781 31.6469 87.7656 31.0062C87.2531 30.2375 86.4844 29.8531 85.4594 29.8531C84.8188 29.8531 84.1781 30.1094 83.6656 30.4937C83.1531 30.8781 82.7688 31.5187 82.6406 32.1594C82.5125 32.5437 82.5125 32.8 82.5125 32.9281V34.9781C82.5125 35.875 82.7688 36.5156 83.2813 37.1562C83.7938 37.7969 84.5625 38.0531 85.3313 38.0531C86.3563 38.0531 87.125 37.6687 87.6375 36.9C88.2781 36.1312 88.5344 35.1062 88.5344 33.825Z" fill="white"/>
<path d="M106.6 35.2344C106.6 36.6438 106.088 37.7969 105.191 38.6938C104.166 39.7188 102.628 40.1031 100.706 40.1031C98.9125 40.1031 97.5031 39.7188 96.4781 39.0781L97.1188 36.9C98.2719 37.5406 99.5531 37.925 100.963 37.925C101.988 37.925 102.756 37.6688 103.269 37.2844C103.781 36.7719 104.038 36.2594 104.038 35.4906C104.038 34.85 103.781 34.2094 103.397 33.825C102.884 33.3125 102.116 32.9281 101.091 32.5438C98.1438 31.5188 96.7344 29.8531 96.7344 27.8031C96.7344 26.3938 97.2469 25.3688 98.2719 24.4719C99.2969 23.575 100.578 23.1906 102.372 23.1906C103.909 23.1906 105.063 23.4469 106.088 23.9594L105.447 26.1375C104.55 25.625 103.525 25.3688 102.244 25.3688C101.347 25.3688 100.578 25.625 100.066 26.0094C99.6813 26.3938 99.425 26.9063 99.425 27.5469C99.425 28.1875 99.6813 28.7 100.194 29.2125C100.578 29.5969 101.475 29.9813 102.628 30.4938C104.038 31.0063 105.063 31.775 105.831 32.5438C106.216 33.1844 106.6 34.0813 106.6 35.2344Z" fill="white"/>
<path d="M115.313 29.9813H112.366V35.7469C112.366 37.1563 112.878 37.925 113.903 37.925C114.416 37.925 114.8 37.925 115.056 37.7969L115.184 39.8469C114.672 40.1031 114.031 40.1031 113.134 40.1031C112.109 40.1031 111.213 39.8469 110.7 39.2062C110.059 38.5656 109.803 37.5406 109.803 36.0031V29.9813H108.009V27.9312H109.803V25.7531L112.366 24.9844V27.9312H115.313V29.9813Z" fill="white"/>
<path d="M128.509 33.825C128.509 35.6188 127.997 37.1563 126.972 38.3094C125.819 39.4625 124.409 40.1031 122.616 40.1031C120.822 40.1031 119.413 39.4625 118.388 38.3094C117.363 37.1563 116.85 35.7469 116.85 33.9531C116.85 32.1594 117.363 30.6219 118.516 29.4688C119.541 28.3156 121.078 27.675 122.872 27.675C124.666 27.675 126.075 28.3156 127.1 29.4688C127.997 30.6219 128.509 32.0313 128.509 33.825ZM125.691 33.9531C125.691 32.8 125.434 31.9031 124.922 31.1344C124.409 30.2375 123.513 29.725 122.488 29.725C121.463 29.725 120.566 30.2375 120.053 31.1344C119.541 31.9031 119.284 32.9281 119.284 33.9531C119.284 35.1063 119.541 36.0031 120.053 36.7719C120.566 37.6688 121.463 38.1813 122.488 38.1813C123.513 38.1813 124.281 37.6688 124.922 36.7719C125.434 36.0031 125.691 34.9781 125.691 33.9531Z" fill="white"/>
<path d="M137.094 30.2375C136.838 30.2375 136.581 30.1094 136.197 30.1094C135.3 30.1094 134.531 30.4937 134.019 31.1344C133.634 31.775 133.378 32.5437 133.378 33.4406V39.7188H130.688V31.5187C130.688 30.1094 130.688 28.9563 130.559 27.8031H132.866L132.994 30.1094H133.122C133.378 29.3406 133.891 28.7 134.403 28.1875C135.044 27.8031 135.684 27.5469 136.325 27.5469C136.581 27.5469 136.838 27.5469 136.966 27.5469V30.2375H137.094Z" fill="white"/>
<path d="M148.881 33.3125C148.881 33.825 148.881 34.2094 148.753 34.4656H140.809C140.809 35.6188 141.194 36.5156 141.963 37.1563C142.603 37.6688 143.5 38.0531 144.525 38.0531C145.678 38.0531 146.831 37.925 147.728 37.5406L148.113 39.3344C146.959 39.8469 145.678 40.1031 144.141 40.1031C142.347 40.1031 140.809 39.5906 139.784 38.4375C138.759 37.4125 138.247 35.875 138.247 34.0813C138.247 32.2875 138.759 30.75 139.656 29.5969C140.681 28.3156 142.091 27.675 143.884 27.675C145.55 27.675 146.959 28.3156 147.728 29.5969C148.625 30.6219 148.881 31.9031 148.881 33.3125ZM146.447 32.6719C146.447 31.9031 146.319 31.2625 145.934 30.6219C145.422 29.8531 144.781 29.4688 143.884 29.4688C142.988 29.4688 142.347 29.8531 141.834 30.4938C141.45 31.0063 141.194 31.775 141.066 32.5438H146.447V32.6719Z" fill="white"/>
<path d="M58.1687 13.1969C58.1687 14.6062 57.7844 15.7594 56.8875 16.5281C56.1187 17.1687 54.9656 17.5531 53.4281 17.5531C52.6594 17.5531 52.0188 17.5531 51.5063 17.425V9.48124C52.1469 9.35312 52.9156 9.35312 53.8125 9.35312C55.2219 9.35312 56.2469 9.60937 57.0156 10.25C57.6562 10.8906 58.1687 11.9156 58.1687 13.1969ZM56.7594 13.1969C56.7594 12.3 56.5031 11.5312 55.9906 11.0187C55.4781 10.5062 54.7094 10.25 53.8125 10.25C53.4281 10.25 53.0438 10.25 52.7875 10.3781V16.4C52.9156 16.4 53.3 16.4 53.6844 16.4C54.7094 16.4 55.4781 16.1437 55.9906 15.6312C56.5031 15.1187 56.7594 14.2219 56.7594 13.1969Z" fill="white"/>
<path d="M65.3437 14.4781C65.3437 15.375 65.0875 16.1437 64.575 16.6562C64.0625 17.2969 63.2937 17.5531 62.3969 17.5531C61.5 17.5531 60.8594 17.2969 60.3469 16.6562C59.8344 16.1437 59.5781 15.375 59.5781 14.4781C59.5781 13.5812 59.8344 12.8125 60.3469 12.3C60.8594 11.6594 61.6281 11.4031 62.525 11.4031C63.4219 11.4031 64.0625 11.6594 64.575 12.3C65.0875 12.8125 65.3437 13.5812 65.3437 14.4781ZM64.0625 14.4781C64.0625 13.9656 63.9344 13.4531 63.6781 13.0687C63.4219 12.5562 63.0375 12.4281 62.525 12.4281C62.0125 12.4281 61.6281 12.6844 61.3719 13.0687C61.1156 13.4531 60.9875 13.9656 60.9875 14.4781C60.9875 14.9906 61.1156 15.5031 61.3719 15.8875C61.6281 16.4 62.0125 16.5281 62.525 16.5281C63.0375 16.5281 63.4219 16.2719 63.6781 15.7594C63.9344 15.5031 64.0625 14.9906 64.0625 14.4781Z" fill="white"/>
<path d="M75.2094 11.5312L73.4156 17.425H72.2625L71.4938 14.8625C71.2375 14.2219 71.1094 13.5813 70.9813 12.9406C70.8531 13.5813 70.725 14.2219 70.4688 14.8625L69.7 17.425H68.5469L66.625 11.5312H67.9062L68.5469 14.35C68.675 14.9906 68.8031 15.6313 68.9313 16.2719C69.0594 15.7594 69.1875 15.1188 69.4438 14.35L70.2125 11.5312H71.2375L72.0063 14.2219C72.2625 14.8625 72.3906 15.5031 72.5188 16.1438C72.6469 15.5031 72.775 14.8625 72.9031 14.2219L73.6719 11.5312H75.2094Z" fill="white"/>
<path d="M81.8719 17.425H80.5906V14.0938C80.5906 13.0688 80.2062 12.5563 79.4375 12.5563C79.0531 12.5563 78.7969 12.6844 78.5406 12.9406C78.2844 13.1969 78.1562 13.5813 78.1562 13.9656V17.425H76.875V13.1969C76.875 12.6844 76.875 12.1719 76.875 11.5313H78.0281V12.4281C78.1562 12.1719 78.4125 11.9156 78.6687 11.6594C79.0531 11.4031 79.4375 11.275 79.8219 11.275C80.3344 11.275 80.8469 11.4031 81.2312 11.7875C81.7437 12.1719 81.8719 12.8125 81.8719 13.7094V17.425Z" fill="white"/>
<path d="M85.4594 17.425H84.1781V8.84061H85.4594V17.425Z" fill="white"/>
<path d="M93.1469 14.4781C93.1469 15.375 92.8906 16.1437 92.3781 16.6562C91.8656 17.2969 91.0969 17.5531 90.2 17.5531C89.3031 17.5531 88.6625 17.2969 88.15 16.6562C87.6375 16.1437 87.3812 15.375 87.3812 14.4781C87.3812 13.5812 87.6375 12.8125 88.15 12.3C88.6625 11.7875 89.4312 11.4031 90.3281 11.4031C91.225 11.4031 91.8656 11.6594 92.3781 12.3C92.8906 12.8125 93.1469 13.5812 93.1469 14.4781ZM91.8656 14.4781C91.8656 13.9656 91.7375 13.4531 91.4812 13.0687C91.225 12.5562 90.8406 12.4281 90.3281 12.4281C89.8156 12.4281 89.4313 12.6844 89.175 13.0687C88.9188 13.4531 88.7906 13.9656 88.7906 14.4781C88.7906 14.9906 88.9188 15.5031 89.175 15.8875C89.4313 16.4 89.8156 16.5281 90.3281 16.5281C90.8406 16.5281 91.225 16.2719 91.4812 15.7594C91.7375 15.5031 91.8656 14.9906 91.8656 14.4781Z" fill="white"/>
<path d="M99.425 17.425H98.2719L98.1438 16.7844C97.7594 17.2969 97.1187 17.5531 96.4781 17.5531C95.9656 17.5531 95.4531 17.425 95.1969 17.0406C94.9406 16.6562 94.6844 16.2719 94.6844 15.8875C94.6844 15.1187 94.9406 14.6062 95.5813 14.2219C96.2219 13.8375 96.9906 13.7094 98.1438 13.7094V13.5812C98.1438 12.8125 97.7594 12.4281 96.9906 12.4281C96.35 12.4281 95.9656 12.5562 95.4531 12.8125L95.1969 11.9156C95.7094 11.5312 96.35 11.4031 97.2469 11.4031C98.7844 11.4031 99.5531 12.1719 99.5531 13.8375V16.0156C99.425 16.6562 99.425 17.0406 99.425 17.425ZM98.1438 15.375V14.4781C96.7344 14.4781 95.9656 14.8625 95.9656 15.6312C95.9656 15.8875 96.0938 16.1437 96.2219 16.2719C96.35 16.4 96.6063 16.5281 96.8625 16.5281C97.1188 16.5281 97.375 16.4 97.6313 16.2719C97.8875 16.1437 98.0156 15.8875 98.1438 15.6312C98.1438 15.6312 98.1438 15.5031 98.1438 15.375Z" fill="white"/>
<path d="M106.856 17.425H105.703V16.5281C105.319 17.2969 104.678 17.5531 103.781 17.5531C103.012 17.5531 102.5 17.2969 101.988 16.7844C101.475 16.2719 101.347 15.5031 101.347 14.6062C101.347 13.7094 101.603 12.9406 102.116 12.3C102.628 11.7875 103.269 11.5312 103.909 11.5312C104.678 11.5312 105.191 11.7875 105.575 12.3V8.96875H106.856V15.8875C106.856 16.4 106.856 16.9125 106.856 17.425ZM105.575 14.9906V13.9656C105.575 13.8375 105.575 13.7094 105.575 13.5813C105.447 13.325 105.319 13.0687 105.062 12.8125C104.806 12.5563 104.55 12.5562 104.166 12.5562C103.653 12.5562 103.269 12.8125 103.012 13.1969C102.756 13.5812 102.628 14.0938 102.628 14.7344C102.628 15.375 102.756 15.7594 103.012 16.1438C103.269 16.5281 103.653 16.7844 104.166 16.7844C104.55 16.7844 104.934 16.6563 105.191 16.2719C105.447 15.7594 105.575 15.375 105.575 14.9906Z" fill="white"/>
<path d="M118.003 14.4781C118.003 15.375 117.747 16.1437 117.234 16.6562C116.722 17.2969 115.953 17.5531 115.056 17.5531C114.159 17.5531 113.519 17.2969 113.006 16.6562C112.494 16.1437 112.238 15.375 112.238 14.4781C112.238 13.5812 112.494 12.8125 113.006 12.3C113.519 11.6594 114.288 11.4031 115.184 11.4031C116.081 11.4031 116.722 11.6594 117.234 12.3C117.747 12.8125 118.003 13.5812 118.003 14.4781ZM116.594 14.4781C116.594 13.9656 116.466 13.4531 116.209 13.0687C115.953 12.5562 115.569 12.4281 115.056 12.4281C114.544 12.4281 114.159 12.6844 113.903 13.0687C113.647 13.4531 113.519 13.9656 113.519 14.4781C113.519 14.9906 113.647 15.5031 113.903 15.8875C114.159 16.4 114.544 16.5281 115.056 16.5281C115.569 16.5281 115.953 16.2719 116.209 15.7594C116.466 15.5031 116.594 14.9906 116.594 14.4781Z" fill="white"/>
<path d="M125.05 17.425H123.769V14.0938C123.769 13.0688 123.384 12.5563 122.616 12.5563C122.231 12.5563 121.975 12.6844 121.719 12.9406C121.463 13.1969 121.334 13.5813 121.334 13.9656V17.425H120.053V13.1969C120.053 12.6844 120.053 12.1719 120.053 11.5313H121.206V12.4281C121.334 12.1719 121.591 11.9156 121.847 11.6594C122.231 11.4031 122.616 11.275 123 11.275C123.513 11.275 124.025 11.4031 124.409 11.7875C124.922 12.1719 125.05 12.8125 125.05 13.7094V17.425Z" fill="white"/>
<path d="M133.763 12.5562H132.353V15.375C132.353 16.1437 132.609 16.4 133.122 16.4C133.378 16.4 133.506 16.4 133.763 16.4V17.425C133.506 17.5531 133.122 17.5531 132.738 17.5531C132.225 17.5531 131.841 17.425 131.584 17.0406C131.328 16.7844 131.2 16.1437 131.2 15.5031V12.5562H130.303V11.5312H131.2V10.5062L132.481 10.1219V11.5312H133.891V12.5562H133.763Z" fill="white"/>
<path d="M140.681 17.425H139.4V14.0937C139.4 13.0687 139.016 12.5562 138.247 12.5562C137.606 12.5562 137.222 12.8125 136.966 13.4531C136.966 13.5812 136.966 13.7094 136.966 13.9656V17.425H135.684V8.84061H136.966V12.4281C137.35 11.7875 137.991 11.4031 138.759 11.4031C139.272 11.4031 139.784 11.5312 140.041 11.9156C140.425 12.3 140.681 13.0687 140.681 13.8375V17.425Z" fill="white"/>
<path d="M147.728 14.2219C147.728 14.4781 147.728 14.6063 147.728 14.8625H143.884C143.884 15.5031 144.141 15.8875 144.397 16.1438C144.781 16.4 145.166 16.5281 145.678 16.5281C146.319 16.5281 146.831 16.4 147.216 16.2719L147.472 17.1688C146.959 17.425 146.319 17.5531 145.55 17.5531C144.653 17.5531 143.884 17.2969 143.372 16.7844C142.859 16.2719 142.603 15.5031 142.603 14.6062C142.603 13.7094 142.859 12.9406 143.372 12.4281C143.884 11.7875 144.525 11.5312 145.422 11.5312C146.319 11.5312 146.959 11.7875 147.344 12.4281C147.6 12.8125 147.728 13.4531 147.728 14.2219ZM146.575 13.8375C146.575 13.4531 146.447 13.0688 146.319 12.8125C146.063 12.4281 145.806 12.3 145.294 12.3C144.909 12.3 144.525 12.4281 144.269 12.8125C144.013 13.0688 143.884 13.4531 143.884 13.8375H146.575Z" fill="white"/>
</svg>
