<svg width="16" height="16" viewBox="0 0 16 16" fill="none" xmlns="http://www.w3.org/2000/svg">
<g clip-path="url(#clip0_3012_2654)">
<path d="M7.9872 3.88328C5.7216 3.88328 3.8784 5.72648 3.8784 7.99208C3.8784 10.2577 5.7216 12.0993 7.9872 12.0993C10.2528 12.0993 12.0944 10.2561 12.0944 7.99208C12.096 5.72648 10.2528 3.88328 7.9872 3.88328ZM7.9872 10.5329C6.5856 10.5329 5.4464 9.39368 5.4464 7.99208C5.4464 6.59048 6.5856 5.45128 7.9872 5.45128C9.3888 5.45128 10.528 6.59048 10.528 7.99208C10.528 9.39368 9.3888 10.5329 7.9872 10.5329ZM11.3456 0.0800781H4.6288C2.1184 0.0800781 0.0752029 2.12328 0.0752029 4.63368V11.3505C0.0752029 13.8609 2.1184 15.9041 4.6288 15.9041H11.3456C13.856 15.9041 15.8992 13.8609 15.8992 11.3505V4.63368C15.8992 2.12328 13.8576 0.0800781 11.3456 0.0800781ZM14.3328 11.3505C14.3328 12.9969 12.992 14.3361 11.3456 14.3361H4.6288C2.9824 14.3361 1.6432 12.9969 1.6432 11.3505V4.63368C1.6432 2.98728 2.9824 1.64808 4.6288 1.64808H11.3456C12.992 1.64808 14.3312 2.98728 14.3312 4.63368V11.3505H14.3328ZM12.152 2.69608C11.56 2.69608 11.0768 3.17768 11.0768 3.77128C11.0768 4.36328 11.5584 4.84648 12.152 4.84648C12.744 4.84648 13.2272 4.36488 13.2272 3.77128C13.2272 3.17768 12.744 2.69608 12.152 2.69608Z" fill="#EC1C37"/>
</g>
<defs>
<clipPath id="clip0_3012_2654">
<rect width="16" height="16" fill="white"/>
</clipPath>
</defs>
</svg>
