<svg width="113" height="6" viewBox="0 0 113 6" fill="none" xmlns="http://www.w3.org/2000/svg">
<path d="M112.667 3C112.667 1.52724 111.473 0.333333 110 0.333333C108.527 0.333333 107.333 1.52724 107.333 3C107.333 4.47276 108.527 5.66667 110 5.66667C111.473 5.66667 112.667 4.47276 112.667 3ZM108.981 2.5C108.705 2.5 108.481 2.72386 108.481 3C108.481 3.27614 108.705 3.5 108.981 3.5L108.981 2.5ZM104.907 3.5C105.184 3.5 105.407 3.27614 105.407 3C105.407 2.72386 105.184 2.5 104.907 2.5L104.907 3.5ZM102.87 2.5C102.594 2.5 102.37 2.72386 102.37 3C102.37 3.27614 102.594 3.5 102.87 3.5L102.87 2.5ZM98.7963 3.5C99.0724 3.5 99.2963 3.27614 99.2963 3C99.2963 2.72386 99.0724 2.5 98.7963 2.5L98.7963 3.5ZM96.7593 2.5C96.4831 2.5 96.2593 2.72386 96.2593 3C96.2593 3.27614 96.4831 3.5 96.7593 3.5L96.7593 2.5ZM92.6852 3.5C92.9613 3.5 93.1852 3.27614 93.1852 3C93.1852 2.72386 92.9613 2.5 92.6852 2.5L92.6852 3.5ZM90.6481 2.5C90.372 2.5 90.1481 2.72386 90.1481 3C90.1481 3.27614 90.372 3.5 90.6481 3.5L90.6481 2.5ZM86.5741 3.5C86.8502 3.5 87.0741 3.27614 87.0741 3C87.0741 2.72386 86.8502 2.5 86.5741 2.5L86.5741 3.5ZM84.537 2.5C84.2609 2.5 84.037 2.72386 84.037 3C84.037 3.27614 84.2609 3.5 84.537 3.5L84.537 2.5ZM80.463 3.5C80.7391 3.5 80.963 3.27614 80.963 3C80.963 2.72386 80.7391 2.5 80.463 2.5L80.463 3.5ZM78.4259 2.5C78.1498 2.5 77.9259 2.72386 77.9259 3C77.9259 3.27615 78.1498 3.5 78.4259 3.5L78.4259 2.5ZM74.3519 3.5C74.628 3.5 74.8519 3.27615 74.8519 3C74.8519 2.72386 74.628 2.5 74.3519 2.5L74.3519 3.5ZM72.3148 2.5C72.0387 2.5 71.8148 2.72386 71.8148 3C71.8148 3.27615 72.0387 3.5 72.3148 3.5L72.3148 2.5ZM68.2407 3.5C68.5169 3.5 68.7407 3.27615 68.7407 3C68.7407 2.72386 68.5169 2.5 68.2407 2.5L68.2407 3.5ZM66.2037 2.5C65.9276 2.5 65.7037 2.72386 65.7037 3C65.7037 3.27615 65.9276 3.5 66.2037 3.5L66.2037 2.5ZM62.1296 3.5C62.4058 3.5 62.6296 3.27615 62.6296 3C62.6296 2.72386 62.4058 2.5 62.1296 2.5L62.1296 3.5ZM60.0926 2.5C59.8165 2.5 59.5926 2.72386 59.5926 3C59.5926 3.27615 59.8165 3.5 60.0926 3.5L60.0926 2.5ZM56.0185 3.5C56.2947 3.5 56.5185 3.27615 56.5185 3C56.5185 2.72386 56.2947 2.5 56.0185 2.5L56.0185 3.5ZM53.9815 2.5C53.7053 2.5 53.4815 2.72386 53.4815 3C53.4815 3.27615 53.7053 3.5 53.9815 3.5L53.9815 2.5ZM49.9074 3.50001C50.1835 3.50001 50.4074 3.27615 50.4074 3.00001C50.4074 2.72386 50.1835 2.50001 49.9074 2.50001L49.9074 3.50001ZM47.8704 2.50001C47.5942 2.50001 47.3704 2.72386 47.3704 3.00001C47.3704 3.27615 47.5942 3.50001 47.8704 3.50001L47.8704 2.50001ZM43.7963 3.50001C44.0724 3.50001 44.2963 3.27615 44.2963 3.00001C44.2963 2.72386 44.0724 2.50001 43.7963 2.50001L43.7963 3.50001ZM41.7593 2.50001C41.4831 2.50001 41.2593 2.72386 41.2593 3.00001C41.2593 3.27615 41.4831 3.50001 41.7593 3.50001L41.7593 2.50001ZM37.6852 3.50001C37.9613 3.50001 38.1852 3.27615 38.1852 3.00001C38.1852 2.72386 37.9613 2.50001 37.6852 2.50001L37.6852 3.50001ZM35.6481 2.50001C35.372 2.50001 35.1481 2.72386 35.1481 3.00001C35.1481 3.27615 35.372 3.50001 35.6481 3.50001L35.6481 2.50001ZM31.5741 3.50001C31.8502 3.50001 32.0741 3.27615 32.0741 3.00001C32.0741 2.72386 31.8502 2.50001 31.5741 2.50001L31.5741 3.50001ZM29.537 2.50001C29.2609 2.50001 29.037 2.72386 29.037 3.00001C29.037 3.27615 29.2609 3.50001 29.537 3.50001L29.537 2.50001ZM25.463 3.50001C25.7391 3.50001 25.963 3.27615 25.963 3.00001C25.963 2.72386 25.7391 2.50001 25.463 2.50001L25.463 3.50001ZM23.4259 2.50001C23.1498 2.50001 22.9259 2.72387 22.9259 3.00001C22.9259 3.27615 23.1498 3.50001 23.4259 3.50001L23.4259 2.50001ZM19.3518 3.50001C19.628 3.50001 19.8518 3.27615 19.8518 3.00001C19.8518 2.72387 19.628 2.50001 19.3518 2.50001L19.3518 3.50001ZM17.3148 2.50001C17.0387 2.50001 16.8148 2.72387 16.8148 3.00001C16.8148 3.27615 17.0387 3.50001 17.3148 3.50001L17.3148 2.50001ZM13.2407 3.50001C13.5169 3.50001 13.7407 3.27615 13.7407 3.00001C13.7407 2.72387 13.5169 2.50001 13.2407 2.50001L13.2407 3.50001ZM11.2037 2.50001C10.9275 2.50001 10.7037 2.72387 10.7037 3.00001C10.7037 3.27615 10.9275 3.50001 11.2037 3.50001L11.2037 2.50001ZM7.12961 3.50001C7.40575 3.50001 7.62961 3.27615 7.62961 3.00001C7.62961 2.72387 7.40575 2.50001 7.12961 2.50001L7.12961 3.50001ZM5.09257 2.50001C4.81642 2.50001 4.59257 2.72387 4.59257 3.00001C4.59257 3.27615 4.81642 3.50001 5.09257 3.50001L5.09257 2.50001ZM1.01849 3.50001C1.29464 3.50001 1.51849 3.27615 1.51849 3.00001C1.51849 2.72387 1.29464 2.50001 1.01849 2.50001L1.01849 3.50001ZM110 2.5L108.981 2.5L108.981 3.5L110 3.5L110 2.5ZM104.907 2.5L102.87 2.5L102.87 3.5L104.907 3.5L104.907 2.5ZM98.7963 2.5L96.7593 2.5L96.7593 3.5L98.7963 3.5L98.7963 2.5ZM92.6852 2.5L90.6481 2.5L90.6481 3.5L92.6852 3.5L92.6852 2.5ZM86.5741 2.5L84.537 2.5L84.537 3.5L86.5741 3.5L86.5741 2.5ZM80.463 2.5L78.4259 2.5L78.4259 3.5L80.463 3.5L80.463 2.5ZM74.3519 2.5L72.3148 2.5L72.3148 3.5L74.3519 3.5L74.3519 2.5ZM68.2407 2.5L66.2037 2.5L66.2037 3.5L68.2407 3.5L68.2407 2.5ZM62.1296 2.5L60.0926 2.5L60.0926 3.5L62.1296 3.5L62.1296 2.5ZM56.0185 2.5L53.9815 2.5L53.9815 3.5L56.0185 3.5L56.0185 2.5ZM49.9074 2.50001L47.8704 2.50001L47.8704 3.50001L49.9074 3.50001L49.9074 2.50001ZM43.7963 2.50001L41.7593 2.50001L41.7593 3.50001L43.7963 3.50001L43.7963 2.50001ZM37.6852 2.50001L35.6481 2.50001L35.6481 3.50001L37.6852 3.50001L37.6852 2.50001ZM31.5741 2.50001L29.537 2.50001L29.537 3.50001L31.5741 3.50001L31.5741 2.50001ZM25.463 2.50001L23.4259 2.50001L23.4259 3.50001L25.463 3.50001L25.463 2.50001ZM19.3518 2.50001L17.3148 2.50001L17.3148 3.50001L19.3518 3.50001L19.3518 2.50001ZM13.2407 2.50001L11.2037 2.50001L11.2037 3.50001L13.2407 3.50001L13.2407 2.50001ZM7.12961 2.50001L5.09257 2.50001L5.09257 3.50001L7.12961 3.50001L7.12961 2.50001ZM1.01849 2.50001L-4.37114e-08 2.50001L4.37114e-08 3.50001L1.01849 3.50001L1.01849 2.50001Z" fill="#EC1C37"/>
</svg>
