<svg width="113" height="6" viewBox="0 0 113 6" fill="none" xmlns="http://www.w3.org/2000/svg">
<path d="M5.66666 3.00001C5.66666 1.52725 4.47276 0.333343 3 0.333343C1.52724 0.333343 0.333336 1.52725 0.333336 3.00001C0.333336 4.47277 1.52724 5.66668 3 5.66668C4.47276 5.66668 5.66666 4.47277 5.66666 3.00001ZM111.981 2.5C111.705 2.5 111.481 2.72386 111.481 3C111.481 3.27614 111.705 3.5 111.981 3.5L111.981 2.5ZM107.907 3.5C108.184 3.5 108.407 3.27614 108.407 3C108.407 2.72386 108.184 2.5 107.907 2.5L107.907 3.5ZM105.87 2.5C105.594 2.5 105.37 2.72386 105.37 3C105.37 3.27614 105.594 3.5 105.87 3.5L105.87 2.5ZM101.796 3.5C102.072 3.5 102.296 3.27614 102.296 3C102.296 2.72386 102.072 2.5 101.796 2.5L101.796 3.5ZM99.7593 2.5C99.4831 2.5 99.2593 2.72386 99.2593 3C99.2593 3.27614 99.4831 3.5 99.7593 3.5L99.7593 2.5ZM95.6852 3.5C95.9613 3.5 96.1852 3.27614 96.1852 3C96.1852 2.72386 95.9613 2.5 95.6852 2.5L95.6852 3.5ZM93.6481 2.5C93.372 2.5 93.1481 2.72386 93.1481 3C93.1481 3.27614 93.372 3.5 93.6481 3.5L93.6481 2.5ZM89.5741 3.5C89.8502 3.5 90.0741 3.27614 90.0741 3C90.0741 2.72386 89.8502 2.5 89.5741 2.5L89.5741 3.5ZM87.537 2.5C87.2609 2.5 87.037 2.72386 87.037 3C87.037 3.27614 87.2609 3.5 87.537 3.5L87.537 2.5ZM83.463 3.5C83.7391 3.5 83.963 3.27614 83.963 3C83.963 2.72386 83.7391 2.5 83.463 2.5L83.463 3.5ZM81.4259 2.5C81.1498 2.5 80.9259 2.72386 80.9259 3C80.9259 3.27615 81.1498 3.5 81.4259 3.5L81.4259 2.5ZM77.3519 3.5C77.628 3.5 77.8519 3.27615 77.8519 3C77.8519 2.72386 77.628 2.5 77.3519 2.5L77.3519 3.5ZM75.3148 2.5C75.0387 2.5 74.8148 2.72386 74.8148 3C74.8148 3.27615 75.0387 3.5 75.3148 3.5L75.3148 2.5ZM71.2407 3.5C71.5169 3.5 71.7407 3.27615 71.7407 3C71.7407 2.72386 71.5169 2.5 71.2407 2.5L71.2407 3.5ZM69.2037 2.5C68.9276 2.5 68.7037 2.72386 68.7037 3C68.7037 3.27615 68.9276 3.5 69.2037 3.5L69.2037 2.5ZM65.1296 3.5C65.4058 3.5 65.6296 3.27615 65.6296 3C65.6296 2.72386 65.4058 2.5 65.1296 2.5L65.1296 3.5ZM63.0926 2.5C62.8165 2.5 62.5926 2.72386 62.5926 3C62.5926 3.27615 62.8165 3.5 63.0926 3.5L63.0926 2.5ZM59.0185 3.5C59.2947 3.5 59.5185 3.27615 59.5185 3C59.5185 2.72386 59.2947 2.5 59.0185 2.5L59.0185 3.5ZM56.9815 2.5C56.7053 2.5 56.4815 2.72386 56.4815 3C56.4815 3.27615 56.7053 3.5 56.9815 3.5L56.9815 2.5ZM52.9074 3.50001C53.1835 3.50001 53.4074 3.27615 53.4074 3.00001C53.4074 2.72386 53.1835 2.50001 52.9074 2.50001L52.9074 3.50001ZM50.8704 2.50001C50.5942 2.50001 50.3704 2.72386 50.3704 3.00001C50.3704 3.27615 50.5942 3.50001 50.8704 3.50001L50.8704 2.50001ZM46.7963 3.50001C47.0724 3.50001 47.2963 3.27615 47.2963 3.00001C47.2963 2.72386 47.0724 2.50001 46.7963 2.50001L46.7963 3.50001ZM44.7593 2.50001C44.4831 2.50001 44.2593 2.72386 44.2593 3.00001C44.2593 3.27615 44.4831 3.50001 44.7593 3.50001L44.7593 2.50001ZM40.6852 3.50001C40.9613 3.50001 41.1852 3.27615 41.1852 3.00001C41.1852 2.72386 40.9613 2.50001 40.6852 2.50001L40.6852 3.50001ZM38.6481 2.50001C38.372 2.50001 38.1481 2.72386 38.1481 3.00001C38.1481 3.27615 38.372 3.50001 38.6481 3.50001L38.6481 2.50001ZM34.5741 3.50001C34.8502 3.50001 35.0741 3.27615 35.0741 3.00001C35.0741 2.72386 34.8502 2.50001 34.5741 2.50001L34.5741 3.50001ZM32.537 2.50001C32.2609 2.50001 32.037 2.72386 32.037 3.00001C32.037 3.27615 32.2609 3.50001 32.537 3.50001L32.537 2.50001ZM28.463 3.50001C28.7391 3.50001 28.963 3.27615 28.963 3.00001C28.963 2.72386 28.7391 2.50001 28.463 2.50001L28.463 3.50001ZM26.4259 2.50001C26.1498 2.50001 25.9259 2.72387 25.9259 3.00001C25.9259 3.27615 26.1498 3.50001 26.4259 3.50001L26.4259 2.50001ZM22.3518 3.50001C22.628 3.50001 22.8518 3.27615 22.8518 3.00001C22.8518 2.72387 22.628 2.50001 22.3518 2.50001L22.3518 3.50001ZM20.3148 2.50001C20.0387 2.50001 19.8148 2.72387 19.8148 3.00001C19.8148 3.27615 20.0387 3.50001 20.3148 3.50001L20.3148 2.50001ZM16.2407 3.50001C16.5169 3.50001 16.7407 3.27615 16.7407 3.00001C16.7407 2.72387 16.5169 2.50001 16.2407 2.50001L16.2407 3.50001ZM14.2037 2.50001C13.9275 2.50001 13.7037 2.72387 13.7037 3.00001C13.7037 3.27615 13.9275 3.50001 14.2037 3.50001L14.2037 2.50001ZM10.1296 3.50001C10.4058 3.50001 10.6296 3.27615 10.6296 3.00001C10.6296 2.72387 10.4058 2.50001 10.1296 2.50001L10.1296 3.50001ZM8.09257 2.50001C7.81642 2.50001 7.59257 2.72387 7.59257 3.00001C7.59257 3.27615 7.81642 3.50001 8.09257 3.50001L8.09257 2.50001ZM4.01849 3.50001C4.29464 3.50001 4.51849 3.27615 4.51849 3.00001C4.51849 2.72387 4.29464 2.50001 4.01849 2.50001L4.01849 3.50001ZM113 2.5L111.981 2.5L111.981 3.5L113 3.5L113 2.5ZM107.907 2.5L105.87 2.5L105.87 3.5L107.907 3.5L107.907 2.5ZM101.796 2.5L99.7593 2.5L99.7593 3.5L101.796 3.5L101.796 2.5ZM95.6852 2.5L93.6481 2.5L93.6481 3.5L95.6852 3.5L95.6852 2.5ZM89.5741 2.5L87.537 2.5L87.537 3.5L89.5741 3.5L89.5741 2.5ZM83.463 2.5L81.4259 2.5L81.4259 3.5L83.463 3.5L83.463 2.5ZM77.3519 2.5L75.3148 2.5L75.3148 3.5L77.3519 3.5L77.3519 2.5ZM71.2407 2.5L69.2037 2.5L69.2037 3.5L71.2407 3.5L71.2407 2.5ZM65.1296 2.5L63.0926 2.5L63.0926 3.5L65.1296 3.5L65.1296 2.5ZM59.0185 2.5L56.9815 2.5L56.9815 3.5L59.0185 3.5L59.0185 2.5ZM52.9074 2.50001L50.8704 2.50001L50.8704 3.50001L52.9074 3.50001L52.9074 2.50001ZM46.7963 2.50001L44.7593 2.50001L44.7593 3.50001L46.7963 3.50001L46.7963 2.50001ZM40.6852 2.50001L38.6481 2.50001L38.6481 3.50001L40.6852 3.50001L40.6852 2.50001ZM34.5741 2.50001L32.537 2.50001L32.537 3.50001L34.5741 3.50001L34.5741 2.50001ZM28.463 2.50001L26.4259 2.50001L26.4259 3.50001L28.463 3.50001L28.463 2.50001ZM22.3518 2.50001L20.3148 2.50001L20.3148 3.50001L22.3518 3.50001L22.3518 2.50001ZM16.2407 2.50001L14.2037 2.50001L14.2037 3.50001L16.2407 3.50001L16.2407 2.50001ZM10.1296 2.50001L8.09257 2.50001L8.09257 3.50001L10.1296 3.50001L10.1296 2.50001ZM4.01849 2.50001L3 2.50001L3 3.50001L4.01849 3.50001L4.01849 2.50001Z" fill="#EC1C37"/>
</svg>
