<svg width="64" height="64" viewBox="0 0 64 64" fill="none" xmlns="http://www.w3.org/2000/svg">
<mask id="mask0_3012_2345" style="mask-type:alpha" maskUnits="userSpaceOnUse" x="0" y="0" width="64" height="64">
<rect width="64" height="64" fill="white"/>
</mask>
<g mask="url(#mask0_3012_2345)">
<path d="M25.333 43.9999L43.9997 31.9999L25.333 19.9999V43.9999ZM31.9997 58.6666C28.3108 58.6666 24.8441 57.9666 21.5997 56.5666C18.3552 55.1666 15.533 53.2666 13.133 50.8666C10.733 48.4666 8.83301 45.6444 7.43301 42.3999C6.03301 39.1555 5.33301 35.6888 5.33301 31.9999C5.33301 28.311 6.03301 24.8444 7.43301 21.5999C8.83301 18.3555 10.733 15.5333 13.133 13.1333C15.533 10.7333 18.3552 8.83325 21.5997 7.43325C24.8441 6.03325 28.3108 5.33325 31.9997 5.33325C35.6886 5.33325 39.1552 6.03325 42.3997 7.43325C45.6441 8.83325 48.4663 10.7333 50.8663 13.1333C53.2663 15.5333 55.1663 18.3555 56.5663 21.5999C57.9663 24.8444 58.6663 28.311 58.6663 31.9999C58.6663 35.6888 57.9663 39.1555 56.5663 42.3999C55.1663 45.6444 53.2663 48.4666 50.8663 50.8666C48.4663 53.2666 45.6441 55.1666 42.3997 56.5666C39.1552 57.9666 35.6886 58.6666 31.9997 58.6666ZM31.9997 53.3332C37.9552 53.3332 42.9997 51.2666 47.133 47.1333C51.2663 42.9999 53.333 37.9555 53.333 31.9999C53.333 26.0444 51.2663 20.9999 47.133 16.8666C42.9997 12.7333 37.9552 10.6666 31.9997 10.6666C26.0441 10.6666 20.9997 12.7333 16.8663 16.8666C12.733 20.9999 10.6663 26.0444 10.6663 31.9999C10.6663 37.9555 12.733 42.9999 16.8663 47.1333C20.9997 51.2666 26.0441 53.3332 31.9997 53.3332Z" fill="white"/>
</g>
</svg>
