<svg width="163" height="50" viewBox="0 0 163 50" fill="none" xmlns="http://www.w3.org/2000/svg">
<g clip-path="url(#clip0_3010_2199)">
<path d="M0.830978 0.703766L5.88078 11.2764H9.60421H153.46H157.183L162.233 0.703766H0.830978ZM155.058 7.91746H7.99019L6.15245 4.07869H156.895L155.058 7.91746Z" fill="#606060"/>
<path d="M0.830978 0.703766L5.88078 11.2764H9.60421H153.46H157.183L162.233 0.703766H0.830978ZM155.058 7.91746H7.99019L6.15245 4.07869H156.895L155.058 7.91746Z" fill="#DD0033"/>
<path d="M81.516 45.8093L142.689 33.4613L145.789 27.1433H149.672L145.15 36.2924L81.516 49.2962L17.8821 36.2924L13.3596 27.1433H17.2428L20.343 33.4613L81.516 45.8093Z" fill="#DD0033"/>
<path d="M81.6278 33.8292L82.6027 36.6922H85.7668L83.2099 38.4677L84.1847 41.3308L81.6278 39.5553L79.071 41.3308L80.0458 38.4677L77.4889 36.6922H80.653L81.6278 33.8292Z" fill="white"/>
<path d="M0.830978 0.703766L5.88078 11.2764H9.60421H153.46H157.183L162.233 0.703766H0.830978ZM155.058 7.91746H7.99019L6.15245 4.07869H156.895L155.058 7.91746Z" fill="#DD0033"/>
<path d="M81.516 45.8093L142.689 33.4613L145.789 27.1433H149.672L145.15 36.2924L81.516 49.2962L17.8821 36.2924L13.3596 27.1433H17.2428L20.343 33.4613L81.516 45.8093Z" fill="#DD0033"/>
<path d="M81.6278 33.8292L82.6027 36.6922H85.7668L83.2099 38.4677L84.1847 41.3308L81.6278 39.5553L79.071 41.3308L80.0458 38.4677L77.4889 36.6922H80.653L81.6278 33.8292Z" fill="white"/>
<path d="M16.2041 21.961C16.2041 24.5041 14.3664 25.2719 12.3528 25.2719H4.55441C2.55686 25.2719 0.862941 23.7524 0.607255 21.689H5.00186C5.24157 22.2169 5.76892 22.5528 6.32824 22.5528C6.99941 22.5528 10.627 22.5688 10.627 22.5688C10.9306 22.5688 11.7775 22.4568 11.7775 21.689C11.7775 20.9213 10.9306 20.8093 10.627 20.8093H4.36265C2.34912 20.8093 0.495392 19.8976 0.495392 17.3384C0.495392 14.7793 2.33314 14.0275 4.34667 14.0275H12.0972C14.0947 14.0275 15.7886 15.547 16.0443 17.5944L11.6497 17.6103C11.41 17.0825 10.8826 16.7306 10.3233 16.7306H6.07255C5.75294 16.7306 4.92196 16.8426 4.92196 17.6103C4.92196 18.3781 5.76892 18.4741 6.07255 18.4741H12.3369C14.3504 18.4741 16.2041 19.4018 16.2041 21.961Z" fill="white"/>
<path d="M35.86 18.9379C35.6043 20.9693 33.9104 22.5048 31.9128 22.5208H24.8815V25.2719H20.5827V14.0275H31.9288C33.9264 14.0275 35.6203 15.547 35.876 17.5944C35.9079 18.0422 35.9079 18.4901 35.86 18.9379ZM31.3056 18.858C31.5133 18.5061 31.5133 18.0582 31.3056 17.6743C31.0978 17.3064 30.7143 17.0825 30.2988 17.0985H24.8815V19.4498H30.2988C30.6983 19.4498 31.0978 19.2258 31.3056 18.858Z" fill="white"/>
<path d="M56.5067 21.689C56.251 23.7364 54.5571 25.2719 52.5435 25.2719H43.8182C41.8207 25.2719 40.1268 23.7524 39.8711 21.705C39.6793 20.3295 39.6793 18.9539 39.8711 17.5784C40.1268 15.547 41.8207 14.0115 43.8182 14.0115H52.5435C54.5411 14.0115 56.235 15.531 56.4907 17.5784C56.6665 18.9539 56.6665 20.3455 56.5067 21.689ZM52.0322 18.3301C51.8883 17.6104 51.2811 17.0985 50.562 17.0985H45.7838C45.0807 17.0985 44.4734 17.6104 44.3296 18.3301C44.1378 19.2098 44.1538 20.1056 44.3296 20.9853C44.4734 21.705 45.0807 22.2169 45.7998 22.2169H50.562C51.2811 22.2169 51.8883 21.705 52.0322 20.9853C52.192 20.1056 52.192 19.2098 52.0322 18.3301Z" fill="white"/>
<path d="M76.6899 25.2719H71.9277L69.8663 22.5208H65.3758V25.2719H61.0771V14.0275H72.2154C74.2129 14.0275 75.9069 15.547 76.1625 17.5944C76.2105 18.0582 76.2105 18.5061 76.1625 18.9379C76.0027 20.2495 75.2197 21.4171 74.1011 22.0249L76.6899 25.2719ZM71.704 18.2661C71.704 17.6103 71.2086 17.0825 70.5694 17.0825H65.3598V19.4338H70.5694C71.2086 19.4338 71.704 18.9059 71.704 18.2661Z" fill="white"/>
<path d="M94.4121 14.0275V17.0985H89.2665V25.2719H84.9677V17.0985H79.838V14.0275H94.4121Z" fill="white"/>
<path d="M114.819 18.8899V25.2719H112.134V24.2482C111.399 24.92 110.472 25.2719 109.498 25.2719H102.035C100.037 25.2719 98.3433 23.7524 98.0876 21.705C97.8959 20.3295 97.8959 18.9539 98.0876 17.5784C98.3433 15.547 100.037 14.0115 102.035 14.0115H110.76C112.758 14.0115 114.452 15.531 114.707 17.5784C114.739 17.7543 114.755 17.9303 114.771 18.1062H110.185C109.961 17.4984 109.402 17.0825 108.763 17.0825H103.984C103.281 17.0825 102.674 17.5944 102.53 18.3141C102.338 19.1938 102.354 20.0896 102.53 20.9693C102.674 21.689 103.281 22.2009 104 22.2009H108.763C109.482 22.2009 110.089 21.689 110.233 20.9533L110.249 20.9373V20.9213H106.334V18.8899H114.819Z" fill="white"/>
<path d="M135.05 25.2719H130.288L128.227 22.5208H123.736V25.2719H119.437V14.0275H130.56C132.557 14.0275 134.251 15.547 134.507 17.5944C134.555 18.0582 134.555 18.5061 134.507 18.9379C134.347 20.2495 133.564 21.4171 132.445 22.0249L135.05 25.2719ZM130.064 18.2661C130.064 17.6103 129.569 17.0825 128.93 17.0825H123.72V19.4338H128.93C129.569 19.4338 130.064 18.9059 130.064 18.2661Z" fill="white"/>
<path d="M143.456 14.0275H139.157V25.2719H143.456V14.0275Z" fill="white"/>
<path d="M162.025 14.0275V17.0985H156.895V25.2719H152.581V17.0985H147.451V14.0275H162.025Z" fill="white"/>
</g>
<defs>
<clipPath id="clip0_3010_2199">
<rect width="163" height="50" fill="white"/>
</clipPath>
</defs>
</svg>
