<svg width="16" height="16" viewBox="0 0 16 16" fill="none" xmlns="http://www.w3.org/2000/svg">
<path d="M15 3.6559C14.4848 3.8847 13.9312 4.0383 13.3504 4.1087C13.944 3.7535 14.3984 3.1903 14.6128 2.5199C14.0576 2.8495 13.4416 3.0879 12.7888 3.2175C12.2656 2.6591 11.5184 2.3103 10.6928 2.3103C9.1056 2.3103 7.8192 3.5951 7.8192 5.1823C7.8192 5.4079 7.8448 5.6271 7.8928 5.8367C5.5056 5.7167 3.3888 4.5743 1.9728 2.8351C1.7264 3.2591 1.584 3.7535 1.584 4.2799C1.584 5.2767 2.0912 6.1551 2.8608 6.6703C2.3904 6.6559 1.9472 6.5263 1.56 6.3103V6.3471C1.56 7.7391 2.5504 8.8991 3.864 9.1631C3.624 9.2287 3.3696 9.2639 3.1072 9.2639C2.9216 9.2639 2.7424 9.2463 2.568 9.2127C2.9328 10.3535 3.9936 11.1839 5.2496 11.2079C4.2672 11.9775 3.0304 12.4367 1.6832 12.4367C1.4512 12.4367 1.224 12.4239 0.998398 12.3967C2.2704 13.2111 3.7792 13.6863 5.4016 13.6863C10.6848 13.6863 13.5744 9.3103 13.5744 5.5151C13.5744 5.3903 13.5712 5.2671 13.5664 5.1439C14.128 4.7375 14.616 4.2319 15 3.6559Z" fill="#EC1C37"/>
</svg>
