<svg width="16" height="16" viewBox="0 0 16 16" fill="none" xmlns="http://www.w3.org/2000/svg">
<path d="M15.9984 6.8656H15.9712C15.9712 6.7088 15.9744 6.5536 15.9696 6.3968C15.9648 6.2432 15.9536 6.0896 15.9424 5.936C15.928 5.7456 15.9088 5.5552 15.8912 5.3648C15.8736 5.1744 15.8704 4.9808 15.832 4.7952C15.7744 4.5152 15.7024 4.2384 15.6192 3.9664C15.544 3.7216 15.432 3.4896 15.2624 3.2944C14.8896 2.864 14.4096 2.6352 13.848 2.576C13.552 2.5456 13.2528 2.5264 12.9552 2.5088C12.6816 2.4912 12.408 2.4784 12.1328 2.4688C11.72 2.4528 11.3072 2.4384 10.8944 2.4272C10.4896 2.416 10.0848 2.4048 9.6816 2.4016C8.888 2.3968 8.0944 2.3888 7.3008 2.3952C6.496 2.4016 5.6928 2.4224 4.888 2.4384C4.5488 2.4448 4.2096 2.456 3.8704 2.4656C3.7632 2.4688 3.656 2.4736 3.5488 2.48C3.1968 2.5008 2.8448 2.5168 2.4944 2.5472C2.2592 2.568 2.0192 2.5888 1.7904 2.6448C1.2864 2.7664 0.88 3.0432 0.6 3.4832C0.3968 3.8064 0.2848 4.168 0.216 4.5392C0.16 4.8416 0.1264 5.1488 0.0944 5.456C0.0624 5.7664 0.0448 6.0784 0.0272 6.3888C0.0112 6.6432 0 6.8976 0 7.152C0 7.8736 0.0048 8.5968 0.0128 9.3184C0.0144 9.4992 0.0272 9.68 0.04 9.8592C0.0592 10.1168 0.0816 10.3744 0.104 10.6304C0.12 10.8208 0.1312 11.0128 0.1616 11.2016C0.2128 11.5264 0.2992 11.8416 0.416 12.1488C0.6304 12.7168 1.032 13.0896 1.6032 13.2816C1.9664 13.4032 2.3456 13.4368 2.7216 13.472C3.0256 13.5008 3.3312 13.5104 3.6368 13.5248C3.888 13.536 4.1408 13.5456 4.3936 13.552C4.7888 13.5632 5.184 13.5728 5.5792 13.5792C5.9456 13.5856 6.312 13.5936 6.6784 13.5968C7.3216 13.6032 7.9664 13.6144 8.608 13.6096C9.4144 13.6032 10.2208 13.5824 11.0272 13.5664C11.3584 13.56 11.688 13.5488 12.0192 13.5392C12.128 13.536 12.2384 13.5312 12.3472 13.5248C12.7104 13.504 13.0736 13.4864 13.4352 13.4576C13.6624 13.44 13.8928 13.424 14.1152 13.376C14.8208 13.224 15.32 12.8176 15.584 12.1344C15.7648 11.6688 15.8496 11.184 15.8896 10.6896C15.912 10.4096 15.9392 10.1296 15.9536 9.8512C15.9728 9.4928 15.9904 9.1328 15.9936 8.7744C16.0032 8.1392 15.9984 7.5024 15.9984 6.8656ZM6.3456 10.0784V5.5872C7.7872 6.3376 9.2208 7.0848 10.6672 7.84C9.224 8.5872 7.7904 9.3296 6.3456 10.0784Z" fill="#EC1C37"/>
</svg>
